<?xml version="1.0" standalone="no"?>
<!DOCTYPE svg PUBLIC "-//W3C//DTD SVG 20010904//EN"
 "http://www.w3.org/TR/2001/REC-SVG-20010904/DTD/svg10.dtd">
<svg version="1.0" xmlns="http://www.w3.org/2000/svg"
 width="1000.000000pt" height="1000.000000pt" viewBox="0 0 1000.000000 1000.000000"
 preserveAspectRatio="xMidYMid meet">

<g transform="translate(0.000000,1000.000000) scale(0.100000,-0.100000)"
fill="#000000" stroke="none">
<path d="M4670 9094 c-620 -45 -1160 -195 -1696 -473 -512 -266 -979 -649
-1338 -1100 -503 -630 -803 -1359 -903 -2191 -24 -203 -24 -697 0 -900 89
-744 340 -1409 749 -1986 332 -468 730 -843 1227 -1155 69 -44 221 -126 336
-184 1193 -592 2577 -592 3770 0 633 315 1152 760 1563 1339 358 505 594 1073
706 1696 49 278 60 412 60 740 0 406 -30 654 -125 1044 -281 1144 -1076 2149
-2133 2697 -485 251 -932 387 -1501 455 -124 15 -594 26 -715 18z m975 -529
c22 -4 67 -9 100 -12 33 -3 62 -9 65 -12 4 -6 101 -47 155 -66 l20 -7 -20 -8
c-11 -5 -33 -7 -50 -6 -16 2 -22 1 -13 -1 10 -2 15 -10 11 -19 -3 -7 -9 -11
-14 -8 -5 3 -9 0 -9 -5 0 -6 6 -11 13 -11 6 0 4 -5 -6 -11 -9 -5 -23 -6 -30
-2 -6 4 -21 9 -32 9 -32 3 -178 35 -200 44 -40 17 -60 23 -67 22 -5 -1 -8 5
-8 13 0 8 -4 15 -10 15 -5 0 -10 -4 -10 -10 0 -5 -4 -10 -9 -10 -4 0 -8 15 -7
32 1 26 -3 33 -18 33 -10 0 -20 7 -21 15 -2 13 8 15 59 13 33 -1 79 -5 101 -8z
m-60 -200 c149 -22 315 -64 315 -79 0 -2 -25 2 -55 10 -94 25 -338 74 -367 74
-15 0 -30 5 -34 11 -4 7 0 9 12 6 11 -3 69 -13 129 -22z m-1971 -57 c-2 -9 0
-19 6 -23 24 -15 -66 -72 -96 -61 -20 8 -184 -30 -253 -58 -81 -33 -91 -33
-60 0 32 34 229 130 301 146 79 18 109 17 102 -4z m1869 -5 c-7 -2 -21 -2 -30
0 -10 3 -4 5 12 5 17 0 24 -2 18 -5z m227 -43 c0 -5 -7 -7 -15 -4 -8 4 -15 8
-15 10 0 2 7 4 15 4 8 0 15 -4 15 -10z m187 -46 c-3 -3 -12 -4 -19 -1 -8 3 -5
6 6 6 11 1 17 -2 13 -5z m-187 -59 c49 -16 106 -45 87 -45 -10 0 -161 61 -167
67 -3 4 2 4 10 1 8 -3 40 -13 70 -23z m-2160 -22 c-122 -58 -200 -92 -200 -88
0 15 238 126 265 124 6 0 -24 -17 -65 -36z m2505 27 c3 -6 -1 -7 -9 -4 -18 7
-21 14 -7 14 6 0 13 -4 16 -10z m-952 -53 c4 3 14 0 24 -8 14 -12 16 -12 8 0
-7 12 4 13 66 7 189 -16 291 -18 299 -5 7 10 20 9 67 -6 32 -10 77 -18 101
-17 28 1 49 -5 61 -16 52 -49 125 -88 251 -132 36 -13 90 -34 120 -49 30 -14
60 -26 65 -27 22 -2 45 -17 45 -28 0 -14 -112 -243 -132 -269 -14 -18 -16 -18
-52 7 -39 26 -93 32 -128 14 -12 -6 -31 -2 -60 13 -44 23 -149 61 -154 56 -2
-1 28 -20 66 -42 39 -21 68 -40 66 -43 -2 -2 -13 1 -24 7 -13 7 -22 7 -30 -1
-9 -9 -12 -8 -12 4 0 9 -7 18 -15 22 -8 3 -15 1 -15 -4 0 -6 5 -10 10 -10 6 0
10 -6 10 -14 0 -8 6 -17 13 -20 6 -2 -5 -3 -25 0 -27 4 -38 1 -38 -7 0 -7 -6
-5 -13 6 -8 10 -19 15 -25 11 -6 -3 -13 -2 -16 2 -3 5 -19 9 -36 10 -21 0 -28
-3 -23 -11 5 -9 3 -9 -8 -1 -8 6 -29 16 -46 22 -29 10 -33 9 -33 -6 0 -15 -2
-15 -10 -2 -5 9 -25 15 -47 16 -20 1 -39 6 -41 12 -2 6 -9 9 -17 6 -10 -4 -12
0 -8 15 4 15 -1 23 -18 30 l-24 10 25 1 25 1 -25 10 c-14 6 -51 12 -84 14 -32
3 -67 7 -78 11 -11 3 -23 2 -27 -4 -3 -6 -7 10 -8 34 -1 24 2 46 6 49 4 2 59
-5 121 -15 62 -11 117 -20 124 -19 24 1 -69 29 -167 50 -58 12 -106 28 -110
36 -7 11 -12 11 -22 3 -8 -6 -24 -10 -37 -8 -21 3 -24 11 -37 102 -11 79 -11
100 -1 106 8 5 11 19 8 35 -7 34 16 59 41 45 10 -5 21 -7 24 -3z m-1483 -47
c-27 -21 -40 -25 -40 -12 0 5 12 13 28 19 39 16 40 15 12 -7z m624 -152 c22
-146 23 -138 -26 -138 -24 0 -66 -3 -95 -6 l-52 -7 5 -46 c3 -25 7 -62 9 -83
l5 -36 -148 -84 c-251 -143 -313 -166 -408 -149 -32 6 -59 11 -61 11 -1 0 0 7
3 15 12 30 -3 20 -109 -72 -33 -29 -63 -53 -68 -53 -4 0 -16 12 -26 26 -10 14
-29 37 -42 52 -46 52 -131 169 -131 180 0 7 7 12 15 12 8 0 15 4 15 10 0 5 15
17 33 26 17 9 43 26 57 36 14 11 69 53 124 94 54 41 93 74 87 74 -6 0 -11 5
-11 10 0 6 7 10 15 10 8 0 15 -5 15 -12 0 -6 9 0 21 13 12 13 25 23 30 22 5
-2 13 6 19 17 6 10 26 22 45 26 19 3 38 10 41 15 3 5 10 7 15 4 5 -4 9 -1 9 5
0 6 4 9 9 6 5 -4 12 0 14 6 4 10 8 9 16 -2 9 -13 11 -13 11 1 0 12 7 15 26 11
14 -2 35 0 47 6 41 20 126 43 136 38 5 -4 11 -2 13 4 1 5 33 12 71 14 73 5
166 31 182 52 13 16 58 22 67 9 3 -6 14 -58 22 -117z m-700 108 c-12 -8 -42
-20 -67 -27 -26 -6 -47 -15 -47 -20 0 -5 -7 -9 -16 -9 -25 0 32 42 61 46 13 1
32 7 42 13 28 16 51 14 27 -3z m2510 -22 c5 -13 3 -14 -6 -7 -7 6 -20 13 -28
16 -10 4 -8 6 6 6 12 1 25 -6 28 -15z m-2424 -18 c0 -2 -7 -7 -16 -10 -8 -3
-12 -2 -9 4 6 10 25 14 25 6z m2480 -11 c9 -10 9 -15 1 -15 -6 0 -11 4 -11 9
0 5 -8 12 -17 14 -15 4 -15 5 -2 6 9 0 22 -6 29 -14z m-2970 -235 c0 -4 -8
-18 -18 -30 l-18 -23 4 36 c3 25 8 34 18 30 8 -3 14 -9 14 -13z m2000 -80
c-20 -13 -40 -13 -40 0 0 6 12 10 28 10 21 0 24 -2 12 -10z m217 -16 c-3 -3
-12 -4 -19 -1 -8 3 -5 6 6 6 11 1 17 -2 13 -5z m-1093 -12 c3 -5 -10 -16 -29
-25 -19 -9 -35 -13 -35 -9 1 26 52 53 64 34z m-114 -46 c0 -2 -9 -6 -20 -9
-11 -3 -18 -1 -14 4 5 9 34 13 34 5z m1450 -111 c0 -2 -10 -9 -22 -15 -22 -11
-22 -10 -4 4 21 17 26 19 26 11z m1529 -10 c-12 -12 -21 -14 -42 -6 -37 14
-34 17 15 19 38 2 41 0 27 -13z m-1592 -22 c-9 -2 -15 -9 -12 -14 4 -5 1 -9
-4 -9 -6 0 -11 -4 -11 -8 0 -5 21 -3 48 3 56 15 87 4 79 -27 -4 -14 -1 -18 8
-14 7 2 16 -2 19 -11 4 -9 13 -13 22 -9 12 4 15 2 10 -9 -4 -10 1 -15 14 -15
11 0 20 -4 20 -9 0 -5 13 -12 30 -16 33 -7 51 -25 25 -25 -9 0 -23 -7 -31 -15
-13 -13 -10 -17 25 -32 40 -17 58 -40 24 -29 -41 12 -147 35 -151 32 -2 -2 16
-10 40 -17 39 -13 53 -37 18 -32 -16 3 -85 10 -110 12 -12 1 -12 3 -2 10 10 6
5 14 -21 30 -27 16 -40 19 -58 12 -18 -7 -19 -10 -6 -10 25 -1 21 -21 -5 -21
-12 0 -31 11 -43 25 -20 24 -75 42 -75 24 0 -5 -7 -9 -15 -9 -8 0 -15 6 -15
14 0 8 -7 17 -16 20 -10 4 -13 2 -9 -7 4 -6 0 -4 -8 6 -17 21 -159 51 -197 42
-23 -6 -24 -5 -9 10 15 15 48 20 93 13 11 -2 20 4 21 14 3 15 0 16 -16 8 -13
-8 -19 -7 -19 0 0 6 10 15 23 20 21 8 21 9 -5 9 -15 1 -30 6 -34 12 -6 11 180
6 229 -6 14 -4 28 -2 31 4 4 6 20 11 36 11 16 0 32 5 35 10 3 6 14 9 23 9 15
-1 15 -2 -1 -6z m2163 -12 c0 -5 9 -12 20 -16 20 -6 122 -107 129 -128 2 -7
12 -23 22 -36 10 -13 16 -27 13 -32 -3 -5 2 -9 10 -9 10 0 13 -6 9 -17 -4 -9
-2 -14 3 -10 6 3 15 -3 22 -14 8 -13 9 -19 1 -19 -6 0 -3 -7 5 -16 23 -23 19
-40 -4 -19 -11 10 -20 24 -20 32 0 7 -9 13 -19 13 -11 0 -26 6 -33 13 -7 8
-19 12 -26 9 -6 -2 -12 3 -12 12 0 9 -7 16 -15 16 -8 0 -14 6 -12 13 1 6 -3
11 -9 10 -7 -1 -15 9 -18 22 -4 16 -11 22 -21 19 -11 -4 -13 -2 -9 9 3 8 0 18
-7 23 -8 4 -10 3 -5 -4 4 -7 5 -12 2 -12 -3 0 -22 32 -41 71 -20 39 -32 68
-26 65 5 -4 12 -2 16 4 8 13 25 13 25 1z m-3830 -11 c0 -5 -2 -10 -4 -10 -3 0
-8 5 -11 10 -3 6 -1 10 4 10 6 0 11 -4 11 -10z m-40 -5 c0 -7 -79 -47 -132
-66 -63 -23 -61 -16 5 14 128 59 127 59 127 52z m3181 -54 c92 -85 176 -151
183 -144 3 4 6 -1 6 -10 0 -9 5 -19 12 -23 8 -5 9 -2 5 9 -3 10 -4 17 -1 17 2
0 9 -12 15 -27 6 -16 13 -23 16 -16 3 8 17 5 48 -11 32 -18 46 -21 55 -12 9 8
11 5 5 -13 -6 -20 -4 -23 9 -18 10 4 16 1 16 -9 0 -8 5 -12 10 -9 6 3 10 -1
10 -10 0 -9 4 -14 9 -11 4 3 16 -3 26 -14 10 -11 23 -20 29 -20 6 0 5 4 -2 9
-8 4 -14 12 -14 17 -1 21 -11 33 -22 27 -6 -3 -8 -3 -4 2 4 4 -3 22 -16 39
-23 30 -44 66 -34 56 20 -20 203 -237 243 -288 39 -51 46 -65 35 -75 -10 -9
-11 -9 -6 1 7 12 -66 103 -89 110 -5 2 -4 -1 4 -6 7 -5 11 -14 7 -20 -3 -6 -2
-13 4 -17 6 -4 8 -10 5 -15 -2 -4 5 -20 16 -34 17 -22 20 -35 15 -67 -4 -28
-3 -39 6 -40 11 0 11 -2 0 -6 -14 -6 48 -128 76 -149 9 -7 17 -16 17 -21 2
-22 28 -83 36 -83 22 0 -5 -22 -63 -51 -46 -23 -63 -28 -73 -19 -10 9 -22 9
-42 2 -24 -9 -25 -11 -6 -11 47 -2 30 -21 -36 -41 -103 -32 -110 -29 -144 61
-28 74 -30 77 -65 82 -21 3 -59 2 -86 -2 -40 -7 -46 -6 -33 4 24 18 21 26 -7
16 -21 -9 -34 2 -129 97 -92 94 -206 219 -167 185 11 -10 17 -10 31 3 16 15
17 14 13 -8 l-5 -23 11 24 c8 18 7 26 -1 31 -8 6 -8 9 0 14 6 4 9 12 5 17 -3
5 -10 7 -15 4 -5 -3 -7 0 -4 7 3 7 -11 31 -30 53 -29 33 -37 38 -45 25 -8 -12
-10 -7 -9 20 1 19 -1 43 -5 53 -3 9 -8 24 -11 32 -6 20 -25 19 -25 0 0 -12 -7
-11 -34 7 l-35 23 21 35 c11 19 48 85 81 145 57 105 92 155 108 155 4 0 35
-27 70 -59z m399 -38 c68 -71 52 -61 -32 20 -28 26 -46 47 -41 47 5 0 38 -30
73 -67z m-3110 37 c0 -5 -10 -10 -22 -10 -38 0 -68 -12 -61 -23 3 -5 1 -7 -4
-4 -28 18 -163 -63 -163 -96 0 -6 -8 -16 -17 -23 -16 -12 -16 -12 5 -7 12 3
22 11 22 18 0 14 73 31 89 21 5 -4 12 -2 16 4 3 5 25 10 48 9 42 0 42 0 -23
-20 -36 -11 -74 -24 -85 -29 -11 -5 -55 -24 -97 -43 -42 -19 -79 -32 -82 -29
-3 3 -6 0 -6 -6 0 -7 -6 -12 -12 -12 -7 0 -35 -12 -63 -26 -27 -14 -75 -34
-105 -46 -30 -11 -60 -25 -67 -30 -7 -5 -14 -5 -18 2 -3 5 1 10 9 10 9 0 16 4
16 9 0 5 15 14 33 20 26 9 29 14 17 21 -13 9 -13 11 0 20 8 5 10 10 5 10 -6 0
-21 -7 -34 -16 -22 -16 -23 -16 -16 5 6 19 0 18 -69 -17 -42 -22 -76 -35 -76
-31 0 5 19 18 43 30 23 12 65 37 92 57 69 49 225 128 277 140 24 6 106 30 183
56 150 48 165 52 165 36z m717 -27 c-3 -10 -5 -4 -5 12 0 17 2 24 5 18 2 -7 2
-21 0 -30z m-257 2 c0 -21 -17 -27 -24 -9 -10 25 -7 34 9 28 8 -4 15 -12 15
-19z m223 -6 c-5 -16 -8 -18 -14 -7 -13 20 -11 38 5 32 8 -3 12 -13 9 -25z
m-273 -6 c0 -22 -2 -25 -10 -13 -13 20 -13 40 0 40 6 0 10 -12 10 -27z m86
-10 c-11 -11 -19 6 -11 24 8 17 8 17 12 0 3 -10 2 -21 -1 -24z m44 10 c0 -22
-2 -25 -10 -13 -13 20 -13 40 0 40 6 0 10 -12 10 -27z m40 6 c0 -5 -4 -9 -10
-9 -5 0 -10 7 -10 16 0 8 5 12 10 9 6 -3 10 -10 10 -16z m60 0 c0 -11 -4 -17
-10 -14 -5 3 -10 13 -10 21 0 8 5 14 10 14 6 0 10 -9 10 -21z m-271 -16 c0
-25 -1 -26 -9 -8 -12 27 -12 35 0 35 6 0 10 -12 9 -27z m-89 -14 c0 -11 -4
-17 -10 -14 -5 3 -10 15 -10 26 0 11 5 17 10 14 6 -3 10 -15 10 -26z m47 11
c-1 -11 -5 -20 -9 -20 -4 0 -8 2 -8 4 0 2 -3 11 -6 20 -4 10 -1 16 9 16 10 0
15 -8 14 -20z m-127 -27 c0 -22 -2 -25 -10 -13 -13 20 -13 40 0 40 6 0 10 -12
10 -27z m40 5 c0 -19 -2 -20 -10 -8 -13 19 -13 30 0 30 6 0 10 -10 10 -22z
m-122 -24 l2 -29 -14 25 c-19 31 -20 43 -3 38 6 -3 13 -18 15 -34z m42 3 c0
-18 -2 -19 -10 -7 -13 20 -13 43 0 35 6 -3 10 -16 10 -28z m-140 3 c0 -5 -4
-10 -10 -10 -5 0 -10 5 -10 10 0 6 5 10 10 10 6 0 10 -4 10 -10z m1116 -25
c18 -13 18 -14 -4 -8 -12 3 -25 9 -28 14 -8 14 10 11 32 -6z m402 -3 c2 -7 -2
-10 -12 -6 -9 3 -16 11 -16 16 0 13 23 5 28 -10z m-694 -41 c-1 -2 -19 0 -40
3 -33 7 -34 8 -18 21 15 11 22 10 40 -4 12 -9 20 -18 18 -20z m2499 -131 c-2
-3 -21 15 -41 39 -90 106 -99 120 -29 46 41 -44 73 -82 70 -85z m21 88 c47
-61 47 -62 7 -18 -23 25 -46 53 -52 63 -20 35 -1 16 45 -45z m-2149 32 c3 -5
2 -10 -4 -10 -5 0 -13 5 -16 10 -3 6 -2 10 4 10 5 0 13 -4 16 -10z m-410 -20
c13 -5 14 -9 5 -9 -8 0 -24 4 -35 9 -13 5 -14 9 -5 9 8 0 24 -4 35 -9z m-625
-36 c0 -2 -11 -4 -25 -4 -14 0 -25 4 -25 9 0 4 11 6 25 3 14 -2 25 -6 25 -8z
m917 0 c-3 -3 -12 -4 -19 -1 -8 3 -5 6 6 6 11 1 17 -2 13 -5z m443 -54 c0 -5
-5 -10 -11 -10 -5 0 -7 5 -4 10 3 6 8 10 11 10 2 0 4 -4 4 -10z m230 -24 c0
-3 -4 -8 -10 -11 -5 -3 -10 -1 -10 4 0 6 5 11 10 11 6 0 10 -2 10 -4z m1627
-51 c21 -34 21 -36 3 -15 -12 14 -31 33 -43 43 -20 16 -20 18 -3 15 10 -2 30
-21 43 -43z m-1577 31 c0 -3 -4 -8 -10 -11 -5 -3 -10 -1 -10 4 0 6 5 11 10 11
6 0 10 -2 10 -4z m30 -41 c-7 -9 -15 -13 -17 -11 -7 7 7 26 19 26 6 0 6 -6 -2
-15z m-270 -10 c15 0 90 -39 90 -46 0 -5 6 -6 13 -3 7 2 24 -4 37 -16 13 -11
18 -20 13 -20 -6 0 -16 7 -23 15 -7 8 -16 13 -20 10 -4 -3 -21 2 -36 10 -16 8
-39 15 -51 15 -15 0 -21 5 -17 14 4 11 0 13 -15 9 -15 -4 -21 -1 -21 11 0 11
4 14 13 9 6 -4 14 -8 17 -8z m-3947 -15 c-3 -12 -8 -19 -11 -16 -5 6 5 36 12
36 2 0 2 -9 -1 -20z m-15 -47 c15 -11 15 -14 2 -23 -12 -8 -12 -12 -2 -18 19
-13 -5 -62 -27 -55 -12 4 -11 2 3 -9 18 -14 18 -15 -1 -34 -18 -17 -46 -60
-48 -74 -3 -19 -39 -79 -45 -75 -7 4 -23 -31 -21 -47 0 -4 -15 -24 -34 -45
-19 -21 -35 -41 -35 -45 0 -5 -10 -8 -22 -8 -28 0 -58 -28 -58 -53 0 -14 -5
-18 -20 -14 -11 3 -18 2 -15 -2 2 -5 -2 -17 -11 -27 -14 -18 -14 -17 -8 16 8
43 65 186 105 262 35 67 73 124 154 232 52 69 60 77 63 56 2 -13 11 -30 20
-37z m643 -10 c63 -65 109 -132 109 -157 0 -25 -83 -96 -111 -96 -31 0 -21
-40 13 -53 11 -4 20 -22 24 -47 4 -23 15 -51 24 -63 17 -20 16 -22 -3 -38
l-21 -16 25 -12 c23 -11 23 -11 5 3 -11 9 -15 16 -8 16 7 0 17 -9 24 -20 7
-11 21 -20 30 -20 10 0 18 -5 18 -11 0 -5 4 -8 9 -4 5 3 12 -4 16 -14 4 -14
-5 -38 -28 -73 -30 -47 -32 -55 -19 -68 12 -11 14 -11 10 0 -5 17 23 48 38 43
6 -2 14 6 17 17 4 17 11 20 26 15 12 -3 21 -2 21 3 0 5 22 31 48 58 26 27 48
51 48 54 -1 3 7 16 16 28 14 20 19 22 37 13 27 -15 27 -24 1 -16 -11 3 -20 2
-20 -3 0 -6 5 -12 11 -14 6 -2 0 -14 -14 -28 -25 -24 -26 -50 -2 -50 7 0 16 6
19 13 3 6 4 3 2 -8 -15 -72 -17 -89 -7 -75 6 8 11 25 11 38 0 12 6 22 15 22 7
0 19 8 24 18 6 9 11 13 11 7 1 -5 3 -18 5 -27 2 -10 0 -18 -4 -18 -4 0 -17
-18 -29 -39 -12 -22 -26 -41 -30 -43 -9 -4 -56 -91 -119 -218 -26 -52 -51 -96
-55 -98 -4 -2 -8 -10 -8 -19 0 -13 -27 -70 -40 -83 -3 -3 -5 -9 -5 -15 -1 -5
-9 -27 -20 -47 -16 -33 -23 -38 -54 -38 -40 1 -158 28 -126 29 22 1 27 16 29
84 1 20 6 37 12 37 10 0 18 17 30 65 1 6 5 19 9 30 5 15 4 17 -3 6 -6 -8 -17
-16 -26 -17 -14 -2 -14 0 1 22 12 19 13 24 2 25 -8 0 -5 4 6 9 19 8 18 9 -4 9
-20 1 -21 3 -11 16 14 16 10 18 -14 9 -9 -3 -16 -12 -16 -20 0 -7 -10 -22 -22
-34 -16 -15 -24 -17 -30 -8 -4 7 -8 9 -8 5 0 -5 -6 -5 -12 0 -20 12 -41 13
-55 1 -19 -15 -16 -5 17 74 17 39 28 73 26 75 -2 2 -24 -32 -47 -77 -47 -87
-45 -85 -120 -64 -21 6 -28 -11 -44 -120 -8 -48 -17 -91 -20 -94 -7 -8 -220
35 -247 49 -15 8 -17 17 -12 47 7 41 50 174 66 209 6 11 8 26 4 31 -3 6 -1 12
5 14 7 2 14 30 17 61 3 35 8 54 15 50 6 -3 7 -1 3 5 -12 20 -9 106 4 110 10 4
9 6 -1 12 -10 7 -10 12 2 26 12 16 12 17 -1 12 -11 -4 -16 1 -17 16 0 11 1 15
4 9 3 -7 9 -13 15 -13 6 0 5 7 -3 16 -10 13 -10 17 2 25 8 5 21 9 29 9 10 0
11 3 3 11 -6 6 -9 18 -6 25 12 31 -7 9 -61 -71 -54 -80 -76 -104 -62 -70 6 17
194 305 208 320 12 12 -59 -125 -74 -142 -7 -9 -7 -17 1 -27 9 -11 9 -15 -1
-19 -7 -3 -2 -4 11 -3 14 2 27 8 29 14 2 7 10 12 18 12 8 0 17 7 20 15 4 8 12
15 20 15 8 0 14 10 14 22 0 12 3 18 7 15 3 -4 21 14 39 41 19 26 54 72 78 102
25 30 53 69 62 85 9 17 20 32 24 35 3 3 15 19 25 37 10 18 23 29 29 26 5 -4 7
1 3 10 -4 11 -1 17 8 17 9 0 12 6 8 16 -10 26 25 3 78 -53z m3699 53 c0 -2 -8
-10 -17 -17 -16 -13 -17 -12 -4 4 13 16 21 21 21 13z m-1043 -32 c-3 -3 -12
-4 -19 -1 -8 3 -5 6 6 6 11 1 17 -2 13 -5z m2541 -30 c-4 -3 -12 5 -18 18 -12
22 -12 22 6 6 10 -10 15 -20 12 -24z m-1457 3 c-10 -9 -11 -8 -5 6 3 10 9 15
12 12 3 -3 0 -11 -7 -18z m-4011 -2 c-7 -8 -17 -15 -22 -15 -11 0 14 29 26 30
5 0 3 -7 -4 -15z m1220 -6 c0 -6 -4 -7 -10 -4 -5 3 -10 11 -10 16 0 6 5 7 10
4 6 -3 10 -11 10 -16z m295 1 c0 -9 -14 -17 -40 -21 -47 -8 -97 -1 -89 13 4 5
14 8 24 5 9 -2 28 2 41 9 30 17 64 14 64 -6z m2275 -10 c8 -5 12 -11 9 -14 -3
-3 -14 1 -25 9 -21 16 -8 20 16 5z m280 1 c0 -6 -4 -13 -10 -16 -5 -3 -10 1
-10 9 0 9 5 16 10 16 6 0 10 -4 10 -9z m1240 -21 c0 -5 -2 -10 -4 -10 -3 0 -8
5 -11 10 -3 6 -1 10 4 10 6 0 11 -4 11 -10z m-4115 -10 c3 -5 1 -10 -4 -10 -6
0 -11 5 -11 10 0 6 2 10 4 10 3 0 8 -4 11 -10z m2909 -5 c-6 -16 -24 -21 -24
-7 0 11 11 22 21 22 5 0 6 -7 3 -15z m-2759 -5 c-3 -5 -12 -10 -18 -10 -7 0
-6 4 3 10 19 12 23 12 15 0z m-185 -21 c0 -5 -4 -9 -10 -9 -5 0 -10 7 -10 16
0 8 5 12 10 9 6 -3 10 -10 10 -16z m2170 11 c-8 -5 -19 -10 -25 -10 -5 0 -3 5
5 10 8 5 20 10 25 10 6 0 3 -5 -5 -10z m1111 -115 c10 -4 19 -11 19 -16 0 -6
4 -8 9 -4 6 3 32 -15 58 -40 46 -42 83 -58 83 -34 0 6 -6 9 -14 6 -14 -6 -56
31 -56 49 1 5 9 -1 19 -13 l18 -22 23 26 c16 18 19 28 11 36 -8 8 -11 8 -11
-1 0 -7 -4 -12 -10 -12 -5 0 -7 7 -4 15 3 8 -4 29 -17 47 -15 22 -2 13 39 -27
61 -60 71 -76 33 -56 -11 6 -22 7 -25 2 -3 -5 10 -12 29 -15 20 -4 33 -11 29
-17 -3 -5 0 -17 7 -25 12 -14 14 -14 19 0 4 13 14 6 45 -31 l40 -48 -34 25
c-19 13 -31 19 -27 12 4 -7 1 -12 -7 -12 -8 0 -25 -8 -37 -18 -18 -15 -20 -19
-7 -19 10 0 17 4 17 9 0 4 13 7 29 6 29 -2 49 -32 30 -44 -5 -3 0 -15 12 -27
11 -12 18 -30 15 -39 -2 -10 1 -18 7 -18 6 0 8 -2 5 -5 -3 -3 -13 -2 -22 1
-13 5 -14 9 -6 14 7 4 9 13 5 20 -6 9 -10 9 -16 -1 -8 -12 -11 -11 -19 1 -7
11 -10 11 -10 2 0 -7 13 -26 30 -42 27 -26 26 -51 -2 -34 -7 4 -8 3 -4 -5 4
-6 2 -20 -5 -29 -11 -14 -11 -15 1 -5 11 10 17 8 32 -15 25 -38 23 -64 -3 -27
-20 28 -20 28 -14 5 4 -14 7 -34 6 -45 0 -11 7 -27 16 -37 9 -10 12 -18 7 -18
-16 0 -46 41 -40 56 3 7 1 13 -5 11 -6 -1 -19 13 -29 32 -31 56 -41 59 -23 6
9 -28 24 -56 32 -63 14 -11 13 -12 -6 -2 -12 5 -25 15 -28 20 -3 6 -11 10 -16
10 -6 0 -7 -4 -4 -10 3 -5 1 -10 -4 -10 -6 0 -11 5 -11 10 0 19 -115 161 -207
256 -7 7 -13 16 -13 21 0 5 -9 16 -20 26 -20 17 -27 37 -12 37 4 0 13 -5 20
-12 7 -7 12 -8 12 -2 -1 5 -19 21 -40 36 -42 29 -51 48 -24 48 14 0 14 3 4 15
-14 17 -7 31 10 20 7 -4 10 -18 7 -32 -5 -29 8 -18 17 14 6 18 -5 33 -54 81
-34 33 -56 62 -49 64 6 2 36 -20 66 -49 30 -28 63 -55 74 -58z m-291 90 c-7
-9 -15 -13 -17 -11 -7 7 7 26 19 26 6 0 6 -6 -2 -15z m-3035 -15 c3 -5 1 -10
-4 -10 -6 0 -11 5 -11 10 0 6 2 10 4 10 3 0 8 -4 11 -10z m814 6 c-2 -2 -71
-36 -154 -75 -155 -74 -180 -75 -41 -1 87 46 163 79 185 79 8 1 12 -1 10 -3z
m2360 1 c-2 -1 -14 -11 -26 -21 -13 -11 -23 -16 -23 -13 0 10 31 37 42 37 6 0
9 -1 7 -3z m21 -37 c6 -11 14 -18 18 -16 5 3 8 -3 9 -13 1 -14 -5 -12 -28 11
-31 32 -34 38 -19 38 5 0 14 -9 20 -20z m-167 -34 c9 -7 17 -16 17 -20 0 -13
-28 -5 -45 14 -21 24 -1 28 28 6z m-4493 -36 c-6 -11 -13 -20 -16 -20 -2 0 0
9 6 20 6 11 13 20 16 20 2 0 0 -9 -6 -20z m4655 -10 c16 -16 26 -30 23 -30 -7
0 -58 48 -58 55 0 9 6 5 35 -25z m-3304 -2 c11 -21 11 -22 -4 -9 -10 7 -17 17
-17 22 0 15 9 10 21 -13z m3191 -68 c2 7 10 5 23 -4 18 -14 19 -15 2 -16 -11
0 -15 -4 -11 -12 9 -15 -22 7 -69 49 -52 46 -46 52 7 8 24 -20 46 -31 48 -25z
m-4604 -27 c-42 -80 -65 -114 -52 -78 9 25 84 155 89 155 2 0 -14 -35 -37 -77z
m5936 7 l7 -25 -15 25 c-9 14 -15 32 -15 40 0 13 1 13 8 0 5 -8 12 -26 15 -40z
m-4625 -14 c10 -12 8 -13 -8 -9 -12 3 -21 9 -21 14 0 14 16 11 29 -5z m-1035
-21 c3 -8 1 -15 -4 -15 -6 0 -10 7 -10 15 0 8 2 15 4 15 2 0 6 -7 10 -15z
m4480 -115 c16 -19 -5 -1 -47 40 -42 41 -77 76 -77 79 0 7 94 -83 124 -119z
m448 81 c2 7 8 6 17 -5 12 -14 12 -16 -3 -10 -25 9 -19 -11 7 -24 18 -9 19
-11 4 -11 -10 -1 -15 -6 -12 -11 4 -6 11 -8 16 -5 5 4 9 1 9 -4 0 -19 -26 -12
-47 12 -23 26 -31 76 -8 57 10 -8 14 -8 17 1z m-3967 -12 c11 -17 -1 -21 -15
-4 -8 9 -8 15 -2 15 6 0 14 -5 17 -11z m-1314 -76 c-11 -21 -20 -35 -21 -31 0
12 33 78 38 74 2 -2 -6 -21 -17 -43z m3284 34 c11 -3 52 -8 90 -13 96 -10 98
-10 115 -17 8 -3 42 -14 75 -23 119 -33 362 -138 385 -165 3 -3 16 -12 30 -19
35 -19 207 -151 255 -197 55 -52 179 -191 184 -206 2 -7 7 -14 10 -17 3 -3 28
-39 55 -80 27 -41 62 -94 78 -117 15 -23 28 -48 28 -57 0 -9 5 -16 10 -16 6 0
13 0 18 -1 4 0 10 10 13 23 5 20 9 16 35 -35 29 -58 29 -59 9 -73 -11 -8 -26
-12 -34 -9 -22 9 -30 -14 -15 -44 14 -29 38 -142 59 -291 16 -110 19 -364 5
-495 -10 -96 -11 -98 -28 -160 -6 -22 -14 -55 -17 -73 -3 -18 -10 -41 -15 -50
-5 -9 -29 -64 -55 -121 -25 -57 -54 -115 -65 -128 -11 -14 -20 -31 -20 -38 0
-7 -20 -37 -45 -67 -25 -30 -45 -58 -45 -62 0 -15 -55 -86 -67 -86 -6 0 -14
-9 -18 -20 -9 -28 -178 -197 -250 -250 -33 -24 -62 -46 -65 -50 -3 -3 -23 -14
-45 -24 -22 -11 -59 -32 -82 -47 -23 -16 -45 -29 -49 -29 -4 0 -26 -9 -48 -19
-67 -31 -255 -90 -346 -108 -47 -9 -146 -17 -220 -19 -74 -1 -143 -6 -153 -9
-23 -10 -183 1 -227 15 -19 6 -42 13 -50 15 -8 2 -35 10 -60 18 -25 8 -58 18
-75 22 -26 6 -55 17 -180 70 -67 29 -144 67 -147 74 -2 3 -28 24 -58 45 -30
21 -62 44 -70 51 -33 27 -220 213 -220 219 0 4 -25 37 -55 73 -30 37 -55 71
-55 76 0 4 -10 23 -23 40 -30 43 -45 68 -56 92 -5 11 -22 49 -39 85 -28 60
-47 112 -44 117 2 3 -34 105 -48 138 -36 86 -85 433 -73 525 4 30 7 69 7 87 0
18 2 30 5 28 3 -1 6 16 7 38 0 23 3 84 6 135 6 91 11 109 59 204 11 20 19 41
19 47 0 27 84 181 119 219 22 24 43 57 47 75 3 17 32 63 63 101 61 76 245 266
258 266 4 0 22 13 39 30 57 53 185 130 216 130 16 0 27 4 23 9 -7 13 22 41 43
41 9 0 31 8 47 18 17 11 62 29 100 42 39 12 75 25 80 29 6 3 16 6 24 8 7 1 54
9 105 17 50 9 102 18 116 20 33 5 299 0 325 -7z m-2410 -36 c3 -5 2 -12 -3
-15 -5 -3 -9 1 -9 9 0 17 3 19 12 6z m350 -37 c-8 -9 -15 -20 -15 -26 0 -6 -3
-8 -7 -5 -9 10 18 58 29 51 4 -3 1 -12 -7 -20z m-72 1 c-3 -9 -8 -14 -10 -11
-3 3 -2 9 2 15 9 16 15 13 8 -4z m3747 -20 c7 -9 8 -15 2 -15 -5 0 -12 7 -16
15 -3 8 -4 15 -2 15 2 0 9 -7 16 -15z m-3454 -40 c-4 -14 -11 -25 -16 -25 -13
0 -13 16 1 42 14 26 23 16 15 -17z m224 -28 l-44 -42 40 46 c21 25 41 44 44
42 2 -2 -16 -23 -40 -46z m-1540 3 c-6 -12 -14 -19 -17 -17 -2 3 1 15 7 27 6
12 14 19 17 17 2 -3 -1 -15 -7 -27z m840 20 c0 -5 -2 -10 -4 -10 -3 0 -8 5
-11 10 -3 6 -1 10 4 10 6 0 11 -4 11 -10z m-1020 -50 c0 -5 -4 -10 -10 -10 -5
0 -10 5 -10 10 0 6 5 10 10 10 6 0 10 -4 10 -10z m1277 -22 c-3 -8 -6 -5 -6 6
-1 11 2 17 5 13 3 -3 4 -12 1 -19z m2873 -8 c0 -5 -2 -10 -4 -10 -3 0 -8 5
-11 10 -3 6 -1 10 4 10 6 0 11 -4 11 -10z m-2480 -3 c0 -2 -12 -14 -27 -28
l-28 -24 24 28 c23 25 31 32 31 24z m3095 -68 c26 -33 45 -62 42 -65 -5 -5
-97 109 -97 120 0 13 9 4 55 -55z m-3525 21 c-8 -5 -17 -7 -19 -4 -3 3 1 9 9
14 8 5 17 7 19 4 3 -3 -1 -9 -9 -14z m3995 -1 c11 -17 -1 -21 -15 -4 -8 9 -8
15 -2 15 6 0 14 -5 17 -11z m60 -25 c1 -25 -10 -30 -35 -14 -12 8 -12 10 3 16
9 3 17 13 17 22 0 25 15 2 15 -24z m-3973 -5 c-12 -12 -38 -54 -58 -93 -42
-82 -42 -81 -50 -74 -5 5 10 34 80 151 18 32 37 49 44 42 2 -2 -5 -14 -16 -26z
m-113 -33 c-7 -20 -17 -36 -22 -36 -4 0 -5 -4 -2 -10 3 -5 1 -10 -5 -10 -6 0
-8 -5 -5 -10 4 -6 11 -7 17 -4 7 4 8 2 4 -4 -4 -7 -14 -12 -22 -12 -8 0 -14
-5 -14 -11 0 -5 5 -7 10 -4 6 3 10 2 10 -4 0 -6 -10 -15 -21 -22 -17 -9 -19
-13 -8 -20 10 -6 11 -9 2 -9 -7 0 -23 -10 -35 -22 -16 -16 -17 -20 -5 -15 9 3
17 2 17 -3 0 -6 -8 -10 -19 -10 -18 0 -25 -28 -9 -40 3 -3 3 -21 -2 -40 l-8
-35 -1 34 c-1 39 -10 38 -13 -1 -1 -16 -7 -24 -15 -21 -17 7 -17 -13 0 -21 6
-3 2 -3 -10 0 -13 3 -23 1 -23 -5 0 -6 -5 -11 -10 -11 -6 0 -8 13 -4 33 4 17
7 40 8 50 0 9 5 17 11 17 17 0 46 24 48 40 2 8 6 20 10 26 4 7 0 17 -8 24 -10
8 -15 9 -15 2 0 -7 -7 -9 -17 -5 -14 5 -12 8 11 16 20 7 26 14 23 27 -3 12 0
17 7 14 7 -3 18 7 24 21 7 14 18 28 26 31 8 3 12 13 8 26 -4 18 -2 19 19 13
20 -7 22 -6 12 7 -15 17 -7 29 13 21 9 -3 14 1 14 13 0 9 3 15 6 11 3 -3 0
-22 -7 -41z m891 -9 c0 -2 -15 -16 -32 -33 l-33 -29 29 33 c28 30 36 37 36 29z
m-649 -215 c-48 -86 -93 -172 -100 -189 -7 -18 -17 -30 -21 -28 -5 3 -12 0
-16 -6 -4 -8 -3 -9 4 -5 18 11 15 -1 -12 -53 -33 -61 -70 -183 -96 -317 -29
-143 -29 -142 -40 -124 -8 13 -10 13 -10 0 0 -9 5 -21 12 -28 13 -13 5 -15
-29 -6 -15 4 -23 14 -23 28 -1 20 -2 20 -14 4 -19 -26 -43 -23 -40 5 1 12 3
30 3 40 1 12 7 17 19 15 19 -3 82 23 82 34 0 4 -10 4 -22 -1 -17 -6 -26 -4
-35 8 -11 14 -14 14 -23 1 -8 -13 -10 -13 -10 2 0 9 4 19 10 23 6 3 6 15 0 30
-6 16 -6 27 1 31 6 3 9 16 8 27 0 12 0 24 1 27 1 3 4 14 6 25 15 87 45 205 53
205 3 0 6 -13 6 -29 0 -16 -3 -27 -6 -25 -4 2 -6 -15 -6 -37 0 -23 -5 -44 -10
-48 -6 -3 -14 -22 -18 -41 -9 -46 8 -28 25 25 7 22 30 74 50 116 38 77 39 77
17 87 -20 9 -19 10 10 9 19 0 30 -4 26 -10 -3 -6 -1 -7 5 -3 21 13 13 26 -15
27 -24 2 -25 2 -5 6 14 3 20 9 15 16 -4 7 2 5 12 -3 17 -14 18 -13 13 8 -4 13
0 35 7 49 8 15 11 31 8 36 -3 6 -1 7 5 3 8 -5 12 1 12 14 0 12 5 18 10 15 6
-4 8 -10 6 -14 -3 -4 -1 -13 4 -20 6 -10 10 -8 15 9 4 14 3 25 -5 30 -9 5 -9
9 -1 14 6 4 14 0 17 -8 3 -9 10 -16 16 -16 5 0 7 3 4 8 -2 4 -1 23 3 42 5 27
12 35 28 34 14 -1 20 3 16 12 -3 8 0 14 6 14 6 0 11 -8 11 -17 0 -14 2 -15 9
-4 6 10 1 22 -18 39 -16 15 -19 23 -9 19 9 -3 19 -1 21 6 2 7 3 4 2 -5 -3 -21
25 -33 37 -16 13 21 9 38 -7 32 -8 -4 -15 -1 -15 5 0 7 12 11 27 9 21 -2 28 2
31 17 2 11 0 16 -5 10 -11 -13 -33 -17 -33 -6 0 13 33 19 46 9 8 -6 -14 -56
-75 -166z m3899 169 c0 -10 -24 -21 -43 -21 -7 0 -3 7 7 15 22 17 36 19 36 6z
m-160 -48 c18 -26 25 -41 17 -34 -16 13 -60 81 -52 81 2 0 18 -21 35 -47z
m167 1 c-3 -3 -12 -4 -19 -1 -8 3 -5 6 6 6 11 1 17 -2 13 -5z m-5310 -26 c-3
-8 -6 -5 -6 6 -1 11 2 17 5 13 3 -3 4 -12 1 -19z m1907 -30 c-23 -24 -54 -61
-70 -83 -16 -22 -32 -42 -35 -45 -4 -3 -20 -27 -37 -53 -27 -44 -31 -46 -37
-26 -4 12 -3 24 2 28 5 3 12 14 16 24 3 9 13 17 21 17 15 0 29 29 24 51 -2 9
8 15 25 17 15 2 27 9 27 18 0 16 39 64 53 64 4 0 15 7 23 15 9 8 18 15 22 15
3 0 -12 -19 -34 -42z m3433 27 c0 -10 -10 -15 -26 -15 l-26 1 25 14 c14 8 25
14 26 15 0 0 1 -7 1 -15z m-4179 -35 c-7 -10 -14 -18 -15 -16 -6 6 9 36 18 36
5 0 4 -9 -3 -20z m4187 -9 c-3 -6 -11 -11 -17 -11 -6 0 -6 6 2 15 14 17 26 13
15 -4z m-4740 -48 c-9 -50 -17 -34 -9 18 4 24 9 38 12 31 2 -7 1 -29 -3 -49z
m4775 27 c0 -5 -7 -10 -16 -10 -8 0 -12 5 -9 10 3 6 10 10 16 10 5 0 9 -4 9
-10z m-4625 -10 c3 -5 1 -10 -4 -10 -6 0 -11 5 -11 10 0 6 2 10 4 10 3 0 8 -4
11 -10z m265 0 c0 -5 -4 -10 -10 -10 -5 0 -10 5 -10 10 0 6 5 10 10 10 6 0 10
-4 10 -10z m300 -20 c0 -5 -2 -10 -4 -10 -3 0 -8 5 -11 10 -3 6 -1 10 4 10 6
0 11 -4 11 -10z m4075 -20 c-3 -5 -16 -10 -28 -10 -18 0 -19 2 -7 10 20 13 43
13 35 0z m-4311 -76 c-13 -30 -26 -63 -27 -72 -2 -9 -8 -26 -14 -37 -6 -11 -8
-26 -5 -34 2 -7 -1 -17 -8 -21 -8 -5 -14 -24 -14 -44 -1 -20 -4 -36 -7 -36 -4
0 -9 -12 -12 -27 -3 -16 -12 -53 -21 -83 -9 -30 -18 -66 -21 -80 -2 -14 -9
-58 -16 -98 -10 -62 -10 -75 2 -83 8 -5 9 -9 3 -9 -6 0 -12 -24 -13 -57 -1
-32 -6 -62 -12 -68 -16 -15 -4 223 13 275 8 21 29 130 32 160 4 35 16 70 25
70 4 0 8 12 8 28 0 15 11 56 25 92 14 36 36 93 49 126 13 34 27 60 31 58 4 -3
-4 -29 -18 -60z m4333 41 c0 -8 -6 -15 -14 -15 -14 0 -17 12 -6 23 11 11 20 8
20 -8z m-4197 -35 c0 -5 -5 -10 -11 -10 -5 0 -7 5 -4 10 3 6 8 10 11 10 2 0 4
-4 4 -10z m4210 -10 c0 -5 -9 -10 -21 -10 -11 0 -17 5 -14 10 3 6 13 10 21 10
8 0 14 -4 14 -10z m15 -40 c4 -6 -5 -10 -20 -10 -15 0 -24 4 -20 10 3 6 12 10
20 10 8 0 17 -4 20 -10z m-5068 -6 c-3 -3 -12 -4 -19 -1 -8 3 -5 6 6 6 11 1
17 -2 13 -5z m777 -19 c-4 -8 -13 -15 -20 -15 -12 0 -12 3 -2 15 17 19 29 19
22 0z m4311 -5 c4 -6 -6 -10 -22 -9 -25 0 -26 1 -8 9 11 5 21 9 22 9 1 1 5 -3
8 -9z m18 -47 c-7 -2 -21 -2 -30 0 -10 3 -4 5 12 5 17 0 24 -2 18 -5z m-4338
-13 c4 -6 11 -7 17 -4 5 4 4 -4 -3 -17 l-14 -24 -3 22 c-2 14 -8 20 -18 16 -8
-3 -14 0 -14 6 0 14 27 15 35 1z m5112 -32 c6 -24 17 -77 23 -118 6 -41 15
-82 20 -91 4 -9 11 -41 15 -73 4 -31 11 -59 16 -62 5 -3 7 -10 4 -15 -4 -5 0
-9 8 -9 17 0 42 -44 33 -58 -3 -6 -2 -13 4 -17 5 -3 10 -17 10 -30 0 -13 6
-30 13 -37 8 -7 12 -19 9 -27 -3 -8 0 -11 7 -7 12 8 15 -6 4 -18 -4 -3 -13 4
-20 16 -13 22 -13 21 -7 -12 3 -19 10 -36 15 -38 5 -2 5 -11 0 -20 -5 -9 -12
-38 -16 -64 -4 -25 -16 -56 -26 -67 -18 -19 -18 -21 -3 -21 15 0 16 -2 2 -17
-19 -23 -29 -73 -14 -73 8 0 8 -2 0 -8 -7 -4 -14 -41 -17 -82 -10 -124 -19
-177 -28 -155 -7 20 -8 20 -9 0 -2 -11 -2 -23 -1 -27 0 -5 -10 -8 -24 -8 -14
0 -25 5 -25 11 0 7 -10 9 -25 5 -14 -4 -42 -2 -63 3 -20 5 -58 15 -84 22 -27
6 -48 16 -48 21 0 5 4 6 10 3 6 -4 7 1 3 11 -6 16 -7 15 -20 -2 -7 -10 -13
-15 -13 -12 0 9 29 150 35 168 3 10 -5 19 -24 27 -29 11 -67 75 -56 93 6 10
-23 381 -34 440 -9 41 -7 48 15 71 15 16 24 37 24 57 0 18 5 32 11 32 6 0 9
14 7 33 -3 29 -6 32 -38 32 -24 0 -36 5 -38 16 -3 17 37 51 73 62 11 3 72 24
135 46 63 22 117 40 120 40 3 1 11 -18 17 -41z m-762 12 c3 -5 -3 -10 -15 -10
-12 0 -18 5 -15 10 3 6 10 10 15 10 5 0 12 -4 15 -10z m-4687 -7 c-10 -2 -26
-2 -35 0 -10 3 -2 5 17 5 19 0 27 -2 18 -5z m862 -33 c-6 -12 -14 -19 -17 -17
-2 3 1 15 7 27 6 12 14 19 17 17 2 -3 -1 -15 -7 -27z m-616 4 c3 -8 2 -12 -4
-9 -6 3 -10 -2 -10 -11 0 -10 -3 -15 -6 -11 -6 5 4 47 11 47 1 0 6 -7 9 -16z
m-236 -19 c3 -3 -6 -5 -20 -5 -14 0 -31 7 -38 15 -10 12 -7 13 21 5 17 -5 34
-12 37 -15z m4682 5 c0 -5 -7 -10 -15 -10 -8 0 -15 5 -15 10 0 6 7 10 15 10 8
0 15 -4 15 -10z m955 -24 c18 -13 18 -14 -3 -25 -28 -15 -29 -15 -34 14 -6 28
8 32 37 11z m-4831 -62 c-52 -117 -96 -288 -115 -446 -7 -54 -16 -98 -21 -98
-5 0 -7 12 -4 28 3 15 13 74 21 132 21 139 66 298 118 408 30 65 31 44 1 -24z
m-850 50 c9 -3 16 -10 16 -14 0 -10 -49 0 -56 11 -6 10 17 12 40 3z m9 -55
c-9 -9 -53 -1 -53 10 0 4 14 6 31 3 17 -2 27 -8 22 -13z m4759 9 c-17 -8 -26
-8 -34 0 -9 9 -4 12 23 11 32 0 33 -1 11 -11z m-4762 -49 c0 -14 -36 -11 -49
4 -8 11 -5 13 19 9 17 -2 30 -8 30 -13z m245 10 c11 -16 1 -19 -13 -3 -7 8 -8
14 -3 14 5 0 13 -5 16 -11z m4538 -6 c-7 -2 -19 -2 -25 0 -7 3 -2 5 12 5 14 0
19 -2 13 -5z m-174 -63 c0 -9 -4 -8 -9 5 -5 11 -9 27 -9 35 0 9 4 8 9 -5 5
-11 9 -27 9 -35z m-4638 20 c5 0 9 -4 9 -9 0 -4 -11 -6 -25 -3 -14 2 -25 9
-25 14 0 6 7 7 16 4 9 -3 20 -6 25 -6z m4886 -16 c-3 -3 -12 -4 -19 -1 -8 3
-5 6 6 6 11 1 17 -2 13 -5z m932 -47 c5 -27 5 -47 0 -47 -5 0 -9 8 -9 19 0 10
-3 34 -6 52 -4 19 -4 31 0 28 3 -3 10 -27 15 -52z m-995 30 c14 -14 31 -57 28
-69 -1 -5 2 -8 6 -8 5 0 18 19 31 43 12 23 21 33 19 22 -2 -22 31 -105 43
-105 4 0 10 -16 13 -36 4 -19 14 -38 22 -41 8 -3 26 -25 41 -50 28 -49 46 -43
36 12 -5 29 -5 29 10 10 15 -19 16 -19 17 -2 0 23 26 50 40 42 6 -4 10 8 10
29 0 69 17 35 33 -68 22 -138 24 -386 2 -386 -8 0 -17 -12 -21 -27 -10 -46
-12 -49 -13 -17 -1 34 22 88 32 77 4 -3 7 -2 7 3 -1 12 -30 50 -30 39 0 -5 -5
-4 -11 2 -6 6 -18 9 -26 6 -7 -3 -22 5 -33 17 -16 19 -20 20 -20 7 0 -10 -4
-17 -9 -17 -6 0 -12 21 -14 48 -3 40 -4 37 -5 -19 -1 -47 -6 -68 -16 -72 -9
-4 -19 -37 -27 -95 -12 -88 -13 -90 -38 -88 -14 2 -26 7 -26 12 0 17 -16 34
-32 34 -11 0 -14 -7 -11 -25 3 -15 1 -25 -6 -25 -7 0 -12 18 -12 43 -3 181
-17 445 -25 465 -5 13 -7 27 -4 31 2 4 -5 46 -15 92 -11 46 -22 94 -25 107 -6
24 9 29 29 9z m903 -9 c-3 -8 -6 -5 -6 6 -1 11 2 17 5 13 3 -3 4 -12 1 -19z
m-844 -8 c-3 -11 -9 -23 -14 -26 -5 -3 -6 2 -2 11 3 10 0 21 -8 26 -11 7 -9 9
8 9 16 0 20 -5 16 -20z m-4864 -6 c2 -2 -10 -4 -27 -4 -17 0 -34 4 -37 10 -5
9 53 3 64 -6z m231 -13 c0 -6 -4 -12 -8 -15 -5 -3 -9 1 -9 9 0 8 4 15 9 15 4
0 8 -4 8 -9z m5514 -131 c24 -135 51 -389 41 -398 -3 -3 -5 0 -5 7 0 7 -16
121 -35 252 -34 232 -40 287 -30 278 2 -3 15 -65 29 -139z m-1775 77 c1 -5 -3
-5 -9 -2 -5 3 -10 16 -9 28 0 21 1 21 9 2 5 -11 9 -24 9 -28z m-4012 27 c-3
-3 -12 -4 -19 -1 -8 3 -5 6 6 6 11 1 17 -2 13 -5z m6133 -43 c0 -13 3 -21 8
-17 21 22 43 -353 22 -384 -8 -12 -10 -10 -11 10 -2 24 -5 40 -9 50 -1 3 -4
26 -6 51 -7 65 -19 104 -32 102 -6 -2 -13 5 -16 15 -7 24 -3 104 5 91 8 -13
19 41 19 95 0 30 3 37 10 26 5 -8 10 -26 10 -39z m-1022 14 c-3 -3 -9 2 -12
12 -6 14 -5 15 5 6 7 -7 10 -15 7 -18z m-4850 -10 c-3 -3 -9 2 -12 12 -6 14
-5 15 5 6 7 -7 10 -15 7 -18z m29 3 c-3 -8 -6 -5 -6 6 -1 11 2 17 5 13 3 -3 4
-12 1 -19z m3763 -171 c62 -341 12 -698 -142 -1004 -23 -46 -46 -83 -50 -83
-5 0 -7 3 -5 8 26 46 90 195 111 262 16 47 34 99 41 115 33 78 65 488 45 590
-5 28 -12 75 -15 105 -4 30 -10 71 -16 90 -5 19 -9 46 -8 60 1 23 1 23 10 -5
5 -16 18 -79 29 -138z m1807 33 l0 -75 -7 60 c-4 33 -8 80 -8 105 0 40 1 42 8
15 4 -16 8 -64 7 -105z m-1441 23 c8 -37 16 -135 18 -218 5 -173 -6 -123 -24
110 -6 77 -13 152 -17 165 -3 14 -3 22 2 18 4 -4 14 -38 21 -75z m351 45 c-3
-7 -5 -2 -5 12 0 14 2 19 5 13 2 -7 2 -19 0 -25z m-4782 12 c-27 -12 -35 -12
-35 0 0 6 12 10 28 9 24 0 25 -1 7 -9z m237 -22 c-7 -7 -12 -8 -12 -2 0 14 12
26 19 19 2 -3 -1 -11 -7 -17z m-237 -18 c3 -5 -3 -10 -14 -10 -11 0 -23 5 -26
10 -3 6 3 10 14 10 11 0 23 -4 26 -10z m5 -46 c0 -2 -11 -4 -25 -4 -14 0 -25
4 -25 9 0 4 11 6 25 3 14 -2 25 -6 25 -8z m337 -26 c-10 -7 -18 -28 -20 -45
-2 -39 -13 -43 -19 -8 -3 14 -2 25 2 25 4 0 7 7 7 15 0 8 -5 15 -11 15 -6 0
-4 4 4 9 8 6 18 7 22 5 4 -3 8 0 8 7 0 10 3 10 12 1 9 -9 8 -15 -5 -24z m-63
-13 c-4 -8 -8 -15 -10 -15 -2 0 -4 7 -4 15 0 8 4 15 10 15 5 0 7 -7 4 -15z
m136 3 c0 -4 -4 -8 -8 -8 -5 0 -7 -13 -4 -30 3 -18 0 -30 -7 -30 -6 0 -11 7
-11 15 0 8 -8 15 -17 16 -11 0 -13 3 -5 6 6 2 9 9 6 14 -3 6 -11 5 -20 -2 -12
-10 -13 -9 -8 5 4 10 13 15 20 12 8 -3 14 -1 14 4 0 5 9 8 20 7 11 -1 20 -5
20 -9z m-437 -5 c-7 -2 -19 -2 -25 0 -7 3 -2 5 12 5 14 0 19 -2 13 -5z m-578
-29 c50 -8 109 -17 133 -21 40 -5 42 -7 42 -39 0 -21 5 -34 13 -34 8 0 9 -3 1
-8 -20 -13 -34 -50 -34 -89 0 -35 3 -40 35 -52 19 -7 40 -22 47 -34 17 -32 34
-229 37 -417 1 -91 4 -190 7 -221 l6 -56 -46 -33 c-34 -25 -45 -38 -39 -49 4
-9 9 -51 11 -94 4 -78 4 -78 38 -94 19 -9 34 -22 34 -29 0 -18 -137 -82 -222
-104 l-69 -18 17 27 c9 14 13 23 9 19 -11 -10 -36 18 -30 35 11 27 -50 327
-69 340 -8 6 -8 10 2 14 8 3 10 9 3 16 -5 7 -19 62 -31 122 -11 61 -25 112
-30 113 -6 2 -10 12 -10 22 0 10 -5 22 -11 25 -6 4 -8 14 -5 22 3 8 0 24 -8
35 -13 19 -14 19 -19 1 -3 -12 -5 -9 -6 10 0 15 -6 27 -12 27 -6 0 -9 9 -6 19
2 10 0 25 -5 32 -9 13 -8 -5 7 -216 4 -56 3 -57 -5 -15 -12 65 -38 274 -45
355 l-5 70 15 -65 c26 -116 26 -115 35 -100 4 7 6 28 3 46 -4 25 -1 35 11 40
9 3 16 15 16 25 0 10 4 19 9 19 5 0 11 11 13 25 3 14 2 25 -2 25 -8 0 -2 46
10 75 5 11 11 56 14 99 3 43 12 86 18 94 11 13 10 14 -9 4 -32 -18 -38 -15
-17 9 16 17 16 22 4 29 -22 14 40 12 145 -6z m-258 -31 c-3 -10 -5 -4 -5 12 0
17 2 24 5 18 2 -7 2 -21 0 -30z m828 7 c3 -5 -1 -10 -9 -10 -8 0 -18 5 -21 10
-3 6 1 10 9 10 8 0 18 -4 21 -10z m425 -20 c5 0 9 -25 8 -55 -2 -61 -7 -67
-25 -30 -6 14 -7 23 -2 19 5 -3 9 -3 9 0 0 2 3 12 7 21 5 15 3 16 -16 5 -13
-6 -25 -9 -29 -6 -3 3 0 6 6 6 7 0 12 5 12 11 0 5 -4 8 -9 5 -5 -3 -14 1 -20
8 -10 12 -8 14 11 9 22 -4 22 -4 5 10 -13 11 -15 16 -5 19 7 3 19 -1 26 -9 7
-7 17 -13 22 -13z m-1190 10 c0 -5 -4 -10 -10 -10 -5 0 -10 5 -10 10 0 6 5 10
10 10 6 0 10 -4 10 -10z m991 -47 c-4 -21 -6 -75 -4 -120 1 -46 -1 -83 -6 -83
-4 0 -9 30 -10 66 -2 77 8 174 19 174 4 0 4 -17 1 -37z m119 17 c0 -11 -2 -20
-4 -20 -2 0 -6 9 -9 20 -3 11 -1 20 4 20 5 0 9 -9 9 -20z m-1184 -37 c-11 -11
-19 6 -11 24 8 17 8 17 12 0 3 -10 2 -21 -1 -24z m860 -9 c-4 -9 -9 -15 -11
-12 -3 3 -3 13 1 22 4 9 9 15 11 12 3 -3 3 -13 -1 -22z m-71 -49 c-1 -48 2
-60 9 -47 6 9 12 26 13 36 5 28 13 33 13 8 0 -12 6 -22 13 -23 6 0 20 -2 30
-4 11 -2 22 5 27 18 7 17 9 18 9 5 1 -10 5 -18 10 -18 6 0 9 -21 7 -47 -4 -68
21 -309 45 -437 11 -59 18 -110 16 -112 -6 -6 -34 101 -43 159 -3 26 -11 50
-16 53 -6 4 -8 -1 -4 -12 3 -11 15 -64 27 -119 12 -55 28 -127 36 -160 7 -33
14 -70 15 -82 0 -21 9 -28 31 -24 10 2 -1 -39 -15 -56 -6 -7 -32 -13 -58 -13
-30 0 -52 -6 -60 -15 -7 -8 -18 -15 -26 -15 -14 0 -39 74 -29 90 3 5 -6 49
-20 97 -31 104 -33 112 -34 136 -1 10 -5 15 -11 12 -6 -4 -10 9 -10 31 0 25
-7 43 -22 56 -17 15 -19 21 -9 27 19 12 5 68 -21 82 -12 7 -17 16 -13 26 10
27 -15 32 -40 7 -31 -31 -35 -44 -19 -76 13 -25 12 -27 -5 -23 -21 4 -51 -32
-51 -62 0 -10 -3 -13 -9 -7 -22 24 -41 377 -20 389 16 10 59 -4 59 -19 0 -15
-31 -16 -42 -1 -4 5 -11 6 -15 1 -4 -4 3 -18 17 -30 14 -12 31 -34 39 -49 8
-15 19 -27 24 -27 5 0 4 7 -3 15 -7 9 -10 18 -7 22 4 3 9 -2 13 -11 3 -9 10
-13 15 -10 16 9 10 -8 -7 -21 -14 -10 -15 -14 -3 -33 8 -12 22 -22 33 -22 18
0 19 12 4 60 -3 8 -3 12 -1 8 11 -20 20 -4 22 38 0 26 4 51 7 56 3 5 -2 16
-12 24 -18 14 -18 14 0 29 15 11 19 27 18 73 -1 55 1 59 26 69 45 18 47 16 47
-52z m376 38 c-8 -15 -10 -15 -11 -2 0 17 10 32 18 25 2 -3 -1 -13 -7 -23z
m66 -19 c8 3 13 -2 13 -13 0 -14 6 -18 23 -15 12 2 17 2 11 -1 -8 -4 -9 -18
-4 -43 5 -20 14 -100 20 -177 6 -77 14 -156 16 -175 4 -26 3 -31 -5 -20 -6 8
-11 27 -11 41 0 15 -7 32 -15 39 -11 10 -13 25 -9 69 5 46 4 54 -7 44 -7 -7
-17 -13 -23 -13 -5 0 1 8 12 19 22 19 19 39 -4 20 -8 -7 -14 -6 -20 2 -4 8 -3
9 4 5 7 -4 12 -1 12 8 0 9 5 16 10 16 19 0 11 70 -11 93 -31 33 -43 58 -24 51
19 -7 20 10 2 28 -8 7 -16 27 -20 43 l-6 30 12 -28 c6 -16 17 -25 24 -23z
m-1237 11 c0 -17 -35 -55 -49 -55 -9 0 0 24 22 58 11 17 27 15 27 -3z m1187
-17 c-3 -8 -6 -5 -6 6 -1 11 2 17 5 13 3 -3 4 -12 1 -19z m471 -137 c1 -77 9
-177 17 -223 14 -79 14 -121 0 -59 -27 124 -49 466 -27 434 4 -7 9 -75 10
-152z m-791 117 c-3 -8 -6 -5 -6 6 -1 11 2 17 5 13 3 -3 4 -12 1 -19z m383
-103 c7 -14 10 -28 7 -32 -4 -3 -7 -1 -7 6 0 7 -4 10 -9 7 -5 -3 -11 5 -13 19
-7 32 5 32 22 0z m-180 -72 c0 -26 7 -96 16 -155 8 -59 14 -116 12 -125 -5
-22 -37 188 -41 270 -2 31 0 57 5 57 4 0 8 -21 8 -47z m-394 10 c-10 -10 -19
5 -10 18 6 11 8 11 12 0 2 -7 1 -15 -2 -18z m-1056 -32 c0 -16 3 -43 6 -60 6
-29 10 -31 38 -28 17 2 30 9 29 16 -2 6 3 11 10 11 31 0 61 -231 41 -319 -5
-22 -7 -21 -37 20 -31 42 -32 43 -36 19 l-4 -25 -8 25 c-4 15 -6 -4 -3 -45 5
-81 -11 -61 -22 27 -4 29 -10 58 -15 64 -8 9 -24 189 -22 237 0 9 1 35 2 58 1
45 21 45 21 0z m210 -268 c6 -29 8 -58 3 -65 -11 -18 -20 51 -27 197 l-5 120
9 -100 c5 -55 14 -124 20 -152z m5760 166 c0 -11 -4 -18 -10 -14 -5 3 -7 12
-3 20 7 21 13 19 13 -6z m1150 13 c0 -5 -6 -17 -14 -27 -7 -10 -11 -27 -8 -37
3 -13 -1 -18 -18 -18 -18 0 -21 4 -16 23 3 12 6 30 6 39 0 14 13 22 43 27 4 0
7 -3 7 -7z m-5483 -24 c-3 -8 -6 -5 -6 6 -1 11 2 17 5 13 3 -3 4 -12 1 -19z
m-267 8 c0 -3 -4 -8 -10 -11 -5 -3 -10 -1 -10 4 0 6 5 11 10 11 6 0 10 -2 10
-4z m5 -76 c3 -5 1 -10 -4 -10 -6 0 -11 5 -11 10 0 6 2 10 4 10 3 0 8 -4 11
-10z m285 0 c0 -5 -2 -10 -4 -10 -3 0 -8 5 -11 10 -3 6 -1 10 4 10 6 0 11 -4
11 -10z m4500 -9 c0 -4 -11 -6 -25 -3 -14 2 -25 6 -25 8 0 2 11 4 25 4 14 0
25 -4 25 -9z m420 -1 c13 -9 13 -10 0 -10 -8 0 -22 5 -30 10 -13 9 -13 10 0
10 8 0 22 -5 30 -10z m-427 -41 c-8 -8 -16 -8 -30 0 -16 9 -14 10 12 11 21 0
26 -3 18 -11z m-4443 -49 c0 -13 -1 -13 -10 0 -5 8 -10 22 -10 30 0 13 1 13
10 0 5 -8 10 -22 10 -30z m367 18 c-3 -8 -6 -5 -6 6 -1 11 2 17 5 13 3 -3 4
-12 1 -19z m-1777 -37 c0 -22 3 -48 6 -58 5 -12 4 -15 -3 -8 -13 13 -23 105
-12 105 5 0 9 -18 9 -39z m5840 9 c0 -5 -7 -7 -15 -4 -8 4 -15 8 -15 10 0 2 7
4 15 4 8 0 15 -4 15 -10z m-4587 -40 c7 0 6 4 -3 10 -11 7 -12 10 -2 10 8 0
16 -9 19 -19 3 -11 11 -22 19 -25 7 -3 11 -12 8 -21 -3 -8 -1 -15 5 -15 6 0
11 -5 11 -11 0 -5 -6 -7 -12 -3 -10 6 -10 4 0 -8 7 -9 12 -20 11 -24 -1 -5 0
-11 1 -14 1 -3 4 -18 6 -35 3 -16 7 -37 10 -45 3 -8 7 -37 9 -65 3 -27 9 -51
15 -53 5 -2 7 -8 4 -13 -3 -6 -12 -2 -20 8 -12 16 -12 14 -4 -14 5 -18 6 -33
4 -33 -8 0 -61 122 -69 160 -4 19 -16 51 -26 70 -21 38 -29 193 -8 158 5 -10
15 -18 22 -18z m164 -2 c2 -17 0 -19 -7 -8 -5 8 -6 18 -4 22 8 12 10 10 11
-14z m-747 -112 l-4 -71 -6 90 c-3 50 -3 95 -1 100 10 19 16 -47 11 -119z
m5175 104 c3 -5 -1 -10 -9 -10 -8 0 -18 5 -21 10 -3 6 1 10 9 10 8 0 18 -4 21
-10z m-4671 -35 c22 4 36 2 36 -4 0 -6 -20 -11 -45 -11 -25 0 -45 2 -45 4 0 2
-3 13 -6 23 -5 17 -5 17 9 0 11 -13 23 -16 51 -12z m-437 -27 c-3 -8 -6 -5 -6
6 -1 11 2 17 5 13 3 -3 4 -12 1 -19z m-723 -3 c-4 -8 -8 -15 -10 -15 -2 0 -4
7 -4 15 0 8 4 15 10 15 5 0 7 -7 4 -15z m5809 8 c-7 -2 -19 -2 -25 0 -7 3 -2
5 12 5 14 0 19 -2 13 -5z m-5727 -78 c-9 -34 -12 -31 -19 19 -6 36 -5 38 10
24 11 -11 13 -25 9 -43z m994 24 c0 -5 -4 -9 -10 -9 -5 0 -10 7 -10 16 0 8 5
12 10 9 6 -3 10 -10 10 -16z m4720 11 c13 -8 13 -10 -2 -10 -9 0 -20 5 -23 10
-8 13 5 13 25 0z m-4341 -45 c0 -5 -4 -3 -9 5 -5 8 -9 22 -9 30 0 16 17 -16
18 -35z m4328 -11 c-3 -3 -12 -4 -19 -1 -8 3 -5 6 6 6 11 1 17 -2 13 -5z
m-4547 -29 c0 -9 -9 -15 -22 -14 -17 1 -19 2 -5 6 9 2 17 9 17 14 0 5 2 9 5 9
3 0 5 -7 5 -15z m-1137 -47 c-9 -17 -19 -6 -17 20 3 39 5 40 13 12 5 -14 6
-28 4 -32z m1082 42 c3 -5 1 -10 -4 -10 -6 0 -11 5 -11 10 0 6 2 10 4 10 3 0
8 -4 11 -10z m4595 -10 c0 -13 -11 -13 -30 0 -12 8 -11 10 8 10 12 0 22 -4 22
-10z m-5111 -40 c4 0 16 -7 27 -16 18 -15 18 -15 -3 -9 -14 4 -23 2 -23 -5 0
-6 -4 -8 -10 -5 -5 3 -9 23 -9 43 1 23 3 29 6 15 2 -13 8 -23 12 -23z m5090 1
c23 -15 -3 -20 -29 -5 -22 12 -23 13 -5 13 11 1 26 -3 34 -8z m-5039 -54 c0
13 29 -32 30 -46 0 -11 -3 -11 -15 -1 -12 10 -15 10 -15 -4 0 -9 3 -15 8 -15
18 3 32 -2 32 -12 0 -5 -4 -7 -10 -4 -5 3 -10 1 -10 -5 0 -7 6 -10 14 -7 15 6
46 -22 46 -40 0 -6 6 -14 13 -16 9 -4 8 -8 -3 -16 -27 -19 -45 -12 -62 27 -9
20 -31 60 -47 88 -31 54 -31 70 0 53 11 -5 19 -6 19 -2z m5021 -13 c17 -21 -5
-17 -32 5 -24 20 -24 20 -2 14 12 -3 28 -11 34 -19z m-5128 -47 c-18 -11 -27
-3 -19 18 5 13 8 14 20 3 12 -11 12 -14 -1 -21z m5133 2 c9 -15 -33 -10 -45 5
-9 11 -6 12 14 8 14 -2 28 -8 31 -13z m-4898 -61 c14 -5 13 -7 -5 -7 -23 -1
-63 42 -63 67 0 9 10 2 25 -19 14 -19 34 -37 43 -41z m4665 27 c-3 -9 -8 -14
-10 -11 -3 3 -2 9 2 15 9 16 15 13 8 -4z m206 -11 c2 -2 2 -7 -2 -10 -3 -3
-16 2 -29 11 l-23 17 25 -7 c14 -4 27 -9 29 -11z m-3719 -70 c53 -81 65 -106
28 -58 -13 16 -27 34 -33 41 -26 31 -33 40 -49 66 -10 15 -14 27 -8 27 6 0 34
-34 62 -76z m2780 72 c0 -2 -7 -7 -16 -10 -8 -3 -12 -2 -9 4 6 10 25 14 25 6z
m358 -108 c-28 -57 -57 -109 -64 -115 -7 -7 -22 -28 -34 -48 -12 -19 -24 -35
-27 -35 -3 0 5 17 17 38 13 20 52 88 87 150 36 61 67 112 69 112 3 0 -19 -46
-48 -102z m337 33 c-8 -17 -18 -31 -21 -31 -3 0 -4 3 -2 8 21 43 32 61 35 58
3 -2 -3 -18 -12 -35z m-5298 -3 c-3 -7 -5 -2 -5 12 0 14 2 19 5 13 2 -7 2 -19
0 -25z m132 -76 c1 -40 4 -51 14 -46 9 5 9 4 0 -6 -9 -10 -10 -17 -2 -26 13
-16 8 -36 -7 -26 -6 4 -14 50 -17 102 -3 54 -2 86 3 75 5 -11 9 -44 9 -73z
m5242 65 c-10 -9 -11 -8 -5 6 3 10 9 15 12 12 3 -3 0 -11 -7 -18z m105 8 c6
-14 -21 -98 -38 -121 -4 -6 -5 -14 -1 -18 4 -4 3 -10 -2 -14 -14 -10 -37 -53
-32 -59 6 -6 57 79 57 95 0 7 6 12 14 12 7 0 16 9 19 21 4 13 10 18 18 13 7
-4 10 -3 5 4 -3 5 -3 12 1 15 5 2 3 2 -4 1 -17 -4 -23 9 -13 26 7 12 13 11 32
-7 13 -11 34 -26 47 -33 16 -8 20 -14 11 -20 -6 -4 -11 -10 -11 -14 1 -3 -10
-29 -25 -57 -14 -29 -24 -62 -21 -75 2 -14 -2 -25 -10 -28 -9 -4 -12 -13 -8
-25 3 -11 1 -22 -5 -26 -6 -4 -8 -15 -5 -26 4 -12 2 -19 -7 -19 -19 0 -41 -37
-27 -46 8 -4 7 -9 -1 -14 -7 -4 -10 -15 -7 -25 9 -21 27 -10 27 16 0 13 7 19
22 19 12 0 18 3 15 7 -4 3 0 14 9 24 10 11 12 19 5 24 -6 3 -11 11 -11 17 0 7
9 2 20 -10 25 -26 53 -19 45 12 -6 19 -5 20 8 4 8 -10 18 -18 22 -18 5 0 18 8
29 18 21 18 21 19 -58 -118 -14 -25 -51 -90 -82 -145 -41 -73 -62 -101 -77
-102 -15 -2 -17 1 -8 10 14 14 15 30 0 22 -12 -8 -61 34 -54 45 7 11 65 10 65
-1 0 -6 -4 -8 -9 -4 -5 3 -12 2 -15 -3 -2 -4 4 -9 15 -9 10 -1 19 5 19 13 0 8
5 14 10 14 6 0 10 9 10 21 0 11 -4 17 -10 14 -14 -9 -12 8 3 25 10 12 9 12 -5
1 -21 -16 -23 -37 -5 -44 6 -3 2 -6 -11 -6 -13 -1 -30 6 -39 14 -13 14 -13 18
1 40 16 25 34 36 19 13 -11 -19 -14 -48 -4 -48 15 0 33 62 21 74 -12 12 -13
29 -1 22 10 -6 23 19 14 27 -9 10 -41 -26 -36 -39 3 -8 -2 -14 -11 -14 -9 0
-16 -4 -16 -8 0 -5 -9 -18 -21 -31 -12 -12 -18 -25 -15 -28 3 -3 -12 -15 -34
-25 -22 -11 -48 -33 -57 -49 -10 -16 -23 -29 -29 -29 -7 0 -16 -9 -19 -20 -9
-27 -27 -14 -20 13 5 19 4 20 -6 6 -11 -14 -14 -14 -29 -1 -17 14 -17 15 2 34
10 10 16 23 13 28 -3 5 6 25 20 46 37 55 30 63 -15 19 -43 -42 -56 -33 -15 11
14 15 25 36 25 46 0 11 9 31 20 45 11 14 20 31 20 38 0 7 7 18 16 26 8 7 26
33 39 58 13 25 31 55 39 66 35 43 104 153 111 176 4 13 14 33 21 44 19 26 18
41 -1 25 -16 -14 -18 -10 -9 14 8 20 23 21 30 1z m-5469 -62 c-3 -10 -5 -4 -5
12 0 17 2 24 5 18 2 -7 2 -21 0 -30z m5239 -32 c-15 -28 -28 -51 -31 -51 -3 0
7 25 22 55 15 30 29 53 31 51 2 -2 -8 -27 -22 -55z m65 -34 c-10 -9 -11 -8 -5
6 3 10 9 15 12 12 3 -3 0 -11 -7 -18z m-5217 -4 c2 -10 8 -33 11 -52 6 -28 5
-33 -8 -28 -9 3 -18 1 -20 -6 -2 -7 -2 9 1 36 3 32 1 47 -7 47 -7 0 -9 5 -6
10 10 15 23 12 29 -7z m5962 -28 c74 -19 137 -35 140 -35 4 0 1 -7 -6 -15 -7
-8 -18 -15 -25 -15 -10 0 -47 -59 -50 -80 0 -3 -7 -15 -14 -28 -7 -13 -10 -30
-7 -38 3 -8 2 -12 -3 -9 -5 3 -12 1 -16 -5 -3 -5 1 -10 10 -10 9 0 13 -5 10
-10 -4 -6 -10 -8 -15 -5 -4 3 -11 -3 -14 -12 -4 -9 -1 -20 6 -25 10 -6 10 -8
-2 -8 -22 0 -53 -71 -45 -103 4 -15 12 -24 18 -20 7 4 8 0 3 -12 -4 -11 -2
-22 6 -27 10 -6 10 -8 1 -8 -7 0 -10 -7 -7 -15 6 -14 -21 -84 -36 -95 -9 -7
-75 -104 -72 -107 10 -12 -2 -33 -20 -33 -22 0 -27 -4 -86 -60 -18 -17 -37
-28 -42 -25 -6 3 -10 1 -10 -4 0 -6 -11 -11 -24 -11 -13 0 -26 -7 -30 -15 -3
-8 -12 -15 -21 -15 -8 0 -15 -4 -15 -10 0 -5 -5 -10 -11 -10 -6 0 -29 -14 -50
-31 -32 -25 -44 -29 -70 -24 -23 5 -30 12 -26 24 3 14 -2 17 -23 16 -19 -1
-26 2 -23 11 2 7 -5 15 -16 19 -18 5 -61 54 -61 68 0 13 95 57 112 52 18 -6
26 9 9 19 -5 4 -5 18 2 36 9 24 7 41 -11 96 l-22 66 34 72 c20 39 72 127 116
195 63 96 84 121 91 110 8 -10 8 -7 3 10 -6 24 -6 24 42 17 101 -16 114 -15
114 2 1 9 7 28 14 41 12 22 11 26 -6 41 -17 14 -19 20 -9 38 6 12 14 22 17 22
3 0 66 -16 140 -35z m-4750 -27 c25 -49 34 -78 24 -78 -6 0 -10 4 -10 10 0 5
-13 32 -30 58 -16 27 -30 53 -30 57 0 14 31 -18 46 -47z m-1639 10 c-3 -8 -6
-5 -6 6 -1 11 2 17 5 13 3 -3 4 -12 1 -19z m2293 -10 c0 -6 -7 -5 -15 2 -8 7
-15 17 -15 22 0 6 7 5 15 -2 8 -7 15 -17 15 -22z m3227 -10 c-38 -68 -88 -148
-93 -148 -5 0 25 55 72 133 40 66 56 77 21 15z m-5487 -48 c7 -19 22 -47 32
-62 11 -16 15 -28 9 -28 -6 0 -11 -5 -11 -11 0 -5 5 -7 10 -4 6 3 10 1 10 -5
0 -6 -10 -10 -22 -8 -22 3 -31 24 -42 98 -2 14 -7 36 -11 50 -11 36 9 13 25
-30z m6005 19 c-5 -16 -9 -18 -15 -9 -4 7 -3 19 3 25 16 17 20 11 12 -16z
m521 -11 c-20 -11 -44 1 -25 12 6 5 19 6 27 3 12 -5 12 -7 -2 -15z m-4610 -60
c75 -95 86 -113 36 -58 -46 50 -106 130 -98 130 3 0 31 -33 62 -72z m2643 -31
c-38 -33 -142 -108 -124 -90 17 18 150 123 155 122 3 0 -11 -14 -31 -32z
m2155 6 c-8 -34 -14 -42 -14 -19 0 9 -4 15 -9 11 -6 -3 -9 4 -8 15 1 12 8 20
19 20 15 0 17 -5 12 -27z m-6609 -71 c-2 -3 -11 1 -20 8 -8 7 -15 9 -15 5 0
-5 -2 -6 -5 -3 -3 3 -3 13 1 22 6 15 8 14 25 -5 11 -12 17 -24 14 -27z m1615
-37 c0 -5 -5 -3 -10 5 -5 8 -10 20 -10 25 0 6 5 3 10 -5 5 -8 10 -19 10 -25z
m3790 0 c-7 -9 -15 -13 -19 -10 -3 3 1 10 9 15 21 14 24 12 10 -5z m-1100 -10
c-7 -8 -17 -15 -23 -15 -6 0 -2 7 9 15 25 19 30 19 14 0z m-2750 -191 c59 -81
176 -195 193 -189 9 4 22 -6 36 -29 26 -42 142 -146 162 -146 8 0 25 7 37 16
12 8 22 11 22 5 0 -5 3 -16 6 -25 3 -9 1 -16 -6 -16 -6 0 -9 4 -5 9 9 16 -9
20 -23 5 -7 -8 -8 -14 -3 -14 6 0 -1 -22 -15 -50 -14 -27 -29 -50 -35 -50 -5
0 -9 -7 -9 -15 0 -36 -75 14 -200 134 -52 50 -96 91 -96 91 -1 0 -17 14 -35
30 -66 62 -149 119 -164 114 -10 -4 -15 0 -15 15 0 12 -6 20 -12 19 -8 -2 -12
5 -10 17 2 19 2 19 -9 2 -8 -14 -8 -22 0 -30 6 -6 11 -26 11 -44 0 -26 4 -33
19 -33 11 0 23 -5 27 -12 4 -6 3 -8 -4 -4 -6 3 -23 -5 -38 -19 -26 -24 -29
-25 -35 -8 -4 10 -8 13 -8 6 -2 -20 11 -43 20 -37 5 3 6 -2 3 -10 -3 -9 -10
-16 -14 -16 -14 0 8 -62 32 -87 38 -41 9 -25 -42 23 -41 38 -47 49 -36 58 8 6
17 22 21 35 6 20 5 22 -10 13 -34 -18 -85 9 -64 34 7 8 -1 31 -25 72 -56 94
-59 107 -30 121 32 14 34 14 34 -5 0 -11 6 -15 19 -11 14 3 18 1 14 -9 -3 -8
1 -14 10 -14 11 0 15 7 12 23 -4 20 -3 20 9 5 7 -10 16 -15 19 -11 11 10 8 45
-2 39 -5 -4 -11 -1 -13 5 -2 6 25 40 60 75 l64 64 46 -50 c26 -27 63 -70 82
-96z m230 11 c35 -36 62 -65 59 -65 -2 0 -34 29 -69 65 -35 36 -62 65 -59 65
2 0 34 -29 69 -65z m-206 16 c9 -16 29 -42 46 -57 16 -16 30 -33 30 -37 0 -5
10 -17 23 -28 12 -10 17 -18 11 -19 -9 0 -53 44 -105 106 -17 20 -34 64 -25
64 3 0 12 -13 20 -29z m-314 -31 c0 -5 -5 -10 -11 -10 -5 0 -7 5 -4 10 3 6 8
10 11 10 2 0 4 -4 4 -10z m5201 -47 c-12 -20 -14 -14 -5 12 4 9 9 14 11 11 3
-2 0 -13 -6 -23z m-1223 -25 c7 -7 12 -21 12 -32 -1 -20 -1 -20 -20 3 -29 34
-22 59 8 29z m-3308 -35 c0 -7 -39 17 -46 28 -3 6 5 3 20 -6 14 -10 26 -19 26
-22z m3310 -27 c0 -1 -8 -2 -18 -3 -10 -1 -27 14 -41 35 l-24 36 42 -33 c22
-18 41 -34 41 -35z m1179 2 c-24 -47 -149 -238 -156 -238 -5 0 1 10 57 95 26
39 61 96 79 128 38 66 51 77 20 15z m-4420 23 c7 -5 11 -13 7 -19 -3 -5 4 -12
15 -15 12 -3 18 -10 14 -16 -5 -10 7 -15 28 -12 4 0 6 -4 5 -10 -2 -6 3 -14
11 -17 9 -3 11 0 6 9 -5 8 3 3 17 -11 13 -14 23 -28 21 -32 -2 -3 3 -9 9 -11
9 -4 7 -6 -3 -6 -9 -1 -39 17 -67 39 -27 22 -52 40 -55 40 -3 0 -18 11 -32 24
-36 33 -17 63 24 37z m2505 -5 c-10 -8 -21 -12 -24 -10 -5 6 21 24 34 24 6 0
1 -6 -10 -14z m-3483 -36 c18 -22 41 -43 53 -46 12 -4 34 -15 49 -26 15 -11
35 -17 43 -14 26 10 66 -19 131 -92 34 -38 119 -125 188 -194 104 -104 125
-130 125 -154 0 -40 31 -71 77 -80 53 -10 97 -37 101 -61 3 -23 -76 -179 -118
-233 -43 -55 -100 -112 -100 -101 0 5 -15 15 -34 21 -19 6 -37 17 -40 25 -7
19 13 19 38 0 10 -8 23 -12 29 -8 6 3 7 1 3 -5 -4 -7 -3 -12 3 -12 19 0 20 17
1 32 -10 9 -20 15 -22 13 -1 -2 -14 12 -28 31 -14 18 -33 36 -42 39 -9 3 -15
12 -12 19 3 7 -9 25 -25 39 -20 16 -29 31 -25 41 4 10 1 16 -7 16 -7 0 -10 3
-7 6 3 3 -14 26 -38 51 -35 37 -41 50 -33 64 10 20 2 69 -12 69 -5 0 -9 -7 -9
-15 0 -8 5 -15 10 -15 6 0 10 -7 10 -16 0 -12 -5 -14 -17 -9 -10 4 -28 10 -40
12 -13 3 -23 8 -23 12 0 4 -24 25 -52 46 -29 22 -62 48 -72 58 -15 13 -22 14
-28 5 -7 -12 -12 -4 -10 13 1 4 -12 9 -29 13 -17 3 -28 10 -24 16 3 5 0 10 -8
10 -7 0 -27 14 -43 30 -16 17 -39 35 -51 40 -15 6 -23 18 -23 35 0 14 -6 25
-13 25 -14 0 -57 52 -57 69 0 5 -8 16 -18 23 -10 7 -30 38 -45 68 l-28 55 22
15 c52 37 186 110 201 110 9 0 31 -18 49 -40z m4162 12 c13 -11 14 -18 6 -23
-8 -4 -20 2 -31 16 -31 40 -18 44 25 7z m-34 -51 c-7 -2 -21 6 -31 19 -29 36
-21 46 12 15 19 -19 26 -31 19 -34z m-2774 19 c3 -5 1 -10 -4 -10 -6 0 -11 5
-11 10 0 6 2 10 4 10 3 0 8 -4 11 -10z m2745 -49 c-1 -11 -9 -6 -25 14 -32 39
-32 55 0 25 14 -13 25 -31 25 -39z m-3121 12 c1 5 6 5 12 1 8 -4 7 -9 -2 -15
-18 -11 -29 -2 -28 24 0 21 1 21 9 2 5 -11 9 -16 9 -12z m2337 1 c-3 -9 -6
-21 -7 -27 0 -7 -4 -3 -9 8 -5 11 -9 14 -9 8 -1 -7 -10 -13 -21 -13 -11 0 -29
-9 -40 -20 -11 -11 -28 -20 -38 -20 -10 0 -36 -8 -58 -19 -21 -10 -72 -29
-111 -42 -40 -13 -73 -27 -73 -31 0 -4 -5 -8 -11 -8 -34 0 11 27 116 69 66 27
149 62 185 79 76 36 84 37 76 16z m752 -35 c4 -23 3 -23 -22 6 -32 37 -34 52
-3 33 12 -9 24 -26 25 -39z m-722 11 c0 -11 -4 -20 -8 -20 -4 0 -8 9 -8 20 0
11 4 20 8 20 4 0 8 -9 8 -20z m692 -41 c3 -23 2 -23 -22 6 -32 37 -33 52 -3
33 12 -9 23 -26 25 -39z m-339 25 c-7 -8 -26 -22 -43 -31 -30 -16 -31 -16 -16
3 22 27 43 43 59 44 11 0 11 -3 0 -16z m1918 -21 c-6 -18 -14 -33 -19 -33 -4
0 -8 -6 -8 -13 0 -8 -11 -27 -25 -43 -14 -16 -25 -39 -25 -51 0 -14 -6 -23
-15 -23 -8 0 -14 -6 -12 -12 1 -7 -4 -12 -10 -11 -7 2 -13 -3 -13 -10 0 -8
-10 -22 -21 -33 -22 -19 -22 -19 -14 6 4 14 16 40 26 58 23 40 24 49 4 32 -12
-10 -13 -7 -5 22 14 47 13 51 -15 44 -28 -7 -30 -2 -14 43 9 24 14 29 20 19 7
-10 9 -9 9 5 0 9 5 17 10 17 6 0 10 -7 10 -16 0 -12 5 -11 19 7 l20 24 -6 -25
c-4 -14 -13 -35 -21 -47 -13 -21 -13 -23 2 -23 9 0 16 7 16 15 0 8 6 12 14 9
8 -3 19 3 26 15 6 12 18 21 27 21 12 0 13 3 4 13 -12 15 -8 24 13 24 10 0 11
-7 3 -34z m-1603 -35 c-10 -15 -23 -8 -39 22 -22 43 -19 47 15 15 16 -15 27
-32 24 -37z m-574 42 c0 -5 -2 -10 -4 -10 -3 0 -8 5 -11 10 -3 6 -1 10 4 10 6
0 11 -4 11 -10z m-2270 -20 c8 -5 12 -11 9 -14 -3 -3 -14 1 -25 9 -21 16 -8
20 16 5z m2810 -47 c0 -23 -19 -14 -35 17 -21 41 -19 47 10 20 14 -13 25 -29
25 -37z m-30 -30 c0 -24 -18 -14 -39 23 -29 48 -26 53 9 19 17 -16 30 -35 30
-42z m-2716 43 c15 -7 40 -25 55 -38 15 -14 34 -28 42 -31 9 -4 8 -6 -6 -7
-18 -1 -19 -1 -2 -11 9 -5 22 -7 27 -4 6 4 65 -21 133 -54 67 -34 130 -61 140
-61 9 0 17 -5 17 -11 0 -7 -9 -9 -22 -5 -13 4 -55 15 -95 26 -39 10 -95 31
-124 46 -67 34 -149 102 -143 119 5 11 -29 29 -48 26 -5 -1 -8 4 -8 9 0 13 3
13 34 -4z m666 -56 c86 -23 125 -37 95 -34 -74 9 -165 30 -221 53 -76 31 -32
24 126 -19z m1730 26 c0 -19 -292 -175 -397 -211 -32 -12 -49 -23 -46 -31 3
-8 -2 -11 -16 -7 -11 3 -18 10 -15 15 4 6 -4 5 -16 -2 -16 -9 -25 -9 -33 -1
-8 8 -6 11 7 11 9 0 14 5 11 10 -4 7 2 9 18 5 16 -4 53 3 98 20 75 27 304 142
349 176 24 18 40 24 40 15z m272 -31 c11 -15 10 -37 -2 -30 -6 3 -18 21 -27
38 -16 31 -16 32 3 17 10 -8 22 -19 26 -25z m-4201 -15 c13 -22 28 -39 35 -36
7 3 10 -3 7 -15 -5 -18 -7 -17 -33 8 -25 25 -51 83 -37 83 3 0 16 -18 28 -40z
m5749 36 c0 -2 -8 -10 -17 -17 -16 -13 -17 -12 -4 4 13 16 21 21 21 13z
m-2372 -47 c-3 -8 -7 -3 -11 10 -4 17 -3 21 5 13 5 -5 8 -16 6 -23z m-1965 -5
c-4 -12 -8 -13 -14 -3 -9 15 -2 32 11 24 5 -3 6 -13 3 -21z m1747 16 c0 -5 -7
-7 -15 -4 -8 4 -15 8 -15 10 0 2 7 4 15 4 8 0 15 -4 15 -10z m1010 -20 c7 -13
6 -20 -3 -23 -13 -4 -36 21 -37 40 0 17 28 5 40 -17z m-1060 -1 c-7 -11 -14
-18 -17 -15 -8 8 5 36 17 36 7 0 7 -6 0 -21z m1011 -30 c16 -23 16 -27 3 -25
-15 2 -54 52 -54 70 0 12 27 -12 51 -45z m-1714 25 c-3 -3 -12 -4 -19 -1 -8 3
-5 6 6 6 11 1 17 -2 13 -5z m80 -10 c-3 -3 -12 -4 -19 -1 -8 3 -5 6 6 6 11 1
17 -2 13 -5z m1603 -51 c0 -22 -15 -15 -33 16 -24 41 -21 48 8 21 14 -13 25
-29 25 -37z m-1443 41 c-3 -3 -12 -4 -19 -1 -8 3 -5 6 6 6 11 1 17 -2 13 -5z
m-1268 -26 c-7 -13 -18 -34 -26 -48 -12 -23 -13 -23 -13 -4 0 12 9 33 21 48
25 32 34 34 18 4z m2428 -2 c0 -8 -6 -12 -15 -9 -11 5 -11 7 0 14 7 5 13 9 14
9 0 0 1 -6 1 -14z m253 -55 c0 -20 -36 24 -44 54 -4 15 1 12 19 -9 14 -16 25
-36 25 -45z m-2652 19 c-10 -30 -28 -50 -28 -31 0 17 23 61 31 61 4 0 3 -14
-3 -30z m2478 21 c-3 -5 10 -7 30 -6 28 3 41 -2 58 -20 36 -40 44 -52 60 -89
15 -36 15 -36 -18 -61 -18 -14 -38 -25 -43 -25 -6 0 -16 -7 -23 -16 -8 -8 -28
-21 -47 -29 -18 -8 -33 -19 -33 -24 0 -6 -8 -11 -19 -11 -10 0 -31 -10 -46
-22 l-28 -22 24 -10 c13 -5 40 -10 59 -11 31 0 35 -3 35 -27 -1 -17 5 -28 17
-31 10 -3 18 -1 18 5 0 5 5 6 11 2 6 -3 15 -1 19 6 5 9 13 9 25 3 22 -13 20
-14 -111 -63 -168 -64 -182 -67 -200 -42 -13 18 -18 20 -47 10 -17 -6 -41 -17
-52 -25 -21 -14 -78 -16 -109 -4 -19 7 -19 8 -1 14 10 4 15 10 12 14 -4 3 -2
14 4 24 8 16 6 19 -10 19 -11 0 -23 -5 -27 -12 -9 -13 -32 43 -33 80 -1 12 -5
22 -11 22 -5 0 -10 7 -10 15 0 8 -6 24 -12 35 -10 15 -10 22 0 32 6 6 12 21
12 31 0 13 5 17 15 13 8 -3 14 0 12 7 -1 7 5 11 14 9 11 -1 16 4 15 15 -1 14
5 17 32 15 24 -2 32 1 32 12 0 18 16 21 25 6 9 -15 41 -12 55 5 7 8 27 17 46
21 19 3 52 19 74 35 23 17 45 27 50 24 5 -3 11 -1 14 4 3 5 22 18 42 30 19 12
32 17 29 11 -3 -5 -1 -10 5 -10 7 0 9 7 6 17 -4 9 -1 20 6 25 17 10 31 10 24
-1z m-3035 -51 c34 0 70 -11 64 -20 -4 -7 33 -20 113 -40 31 -8 42 -16 42 -29
0 -12 11 -23 32 -30 17 -6 29 -14 26 -17 -9 -8 -68 24 -68 37 0 6 -6 9 -12 6
-7 -2 -30 4 -51 15 -21 10 -42 16 -47 13 -6 -3 -10 -1 -10 6 0 7 -6 5 -14 -6
-13 -18 -15 -17 -52 12 -22 17 -55 48 -74 70 -30 32 -30 34 -4 10 16 -15 41
-27 55 -27z m2898 46 c-2 -2 -15 -9 -29 -15 -24 -11 -24 -11 -6 3 16 13 49 24
35 12z m-2269 -71 c-7 -20 -14 -34 -17 -31 -3 2 1 20 8 40 17 46 25 38 9 -9z
m-40 14 c-7 -11 -14 -19 -16 -16 -7 7 7 37 17 37 6 0 5 -9 -1 -21z m2225 13
c-13 -11 -65 -33 -65 -27 0 2 12 11 28 19 30 17 52 21 37 8z m-2147 -53 c-6
-16 -12 -28 -14 -26 -5 5 13 57 20 57 3 0 0 -14 -6 -31z m542 10 c31 -13 36
-18 16 -14 -37 8 -95 33 -76 34 8 0 35 -9 60 -20z m3338 12 c10 -6 1 -13 -29
-25 -49 -20 -74 -8 -38 18 26 18 47 20 67 7z m-3847 -58 c-9 -16 -10 -16 -11
-1 0 9 3 25 7 35 7 16 8 17 11 1 2 -10 -1 -25 -7 -35z m1999 43 c0 -2 -7 -6
-15 -10 -8 -3 -15 -1 -15 4 0 6 7 10 15 10 8 0 15 -2 15 -4z m-2453 -12 c-3
-3 -12 -4 -19 -1 -8 3 -5 6 6 6 11 1 17 -2 13 -5z m498 -35 c-6 -26 -9 -29
-17 -16 -6 11 -5 24 2 38 16 29 23 17 15 -22z m439 2 c-6 -6 -24 19 -24 34 1
6 7 1 15 -9 8 -11 12 -22 9 -25z m1301 -16 c-23 -25 -28 -27 -52 -16 -20 9
-28 9 -33 0 -4 -6 -14 -9 -21 -7 -8 3 -27 1 -44 -4 -16 -5 -68 -11 -115 -12
-47 -2 -121 -9 -165 -16 -44 -7 -130 -13 -191 -14 -106 -1 -110 -2 -106 -22 4
-24 -32 -44 -78 -44 -34 0 -37 6 -13 32 15 17 14 18 -18 18 -19 0 -65 7 -104
16 -38 8 -81 17 -95 19 -79 12 -186 38 -195 47 -7 8 -4 9 9 4 34 -12 259 -55
340 -65 90 -11 120 -6 90 16 -16 12 -16 13 9 13 15 0 27 5 27 11 0 6 5 7 13 2
6 -4 28 -9 49 -10 29 -2 39 3 53 23 12 19 22 24 43 20 15 -2 40 -5 55 -5 16
-1 26 -5 22 -11 -3 -5 2 -10 11 -10 10 0 14 3 11 7 -13 12 29 31 63 28 19 -1
50 -10 68 -20 21 -11 44 -15 63 -11 18 3 29 1 29 -5 0 -8 4 -8 14 0 8 6 18 11
22 10 12 -3 55 8 129 33 33 11 72 17 87 14 16 -3 30 0 35 7 5 9 8 7 11 -4 2
-9 -8 -29 -23 -44z m61 34 c19 -22 19 -22 -3 -10 -13 6 -23 16 -23 21 0 15 5
12 26 -11z m-1746 7 c0 -17 -29 -66 -34 -58 -7 12 13 62 26 62 4 0 8 -2 8 -4z
m505 -6 c13 -5 14 -9 5 -9 -8 0 -24 4 -35 9 -13 5 -14 9 -5 9 8 0 24 -4 35 -9z
m-486 -66 c-6 -16 -13 -23 -16 -16 -3 6 1 26 9 42 16 38 23 14 7 -26z m544 49
c-7 -2 -19 -2 -25 0 -7 3 -2 5 12 5 14 0 19 -2 13 -5z m-503 -53 c-18 -33 -25
-15 -9 22 9 23 15 28 17 16 2 -9 -2 -27 -8 -38z m1865 40 c3 -5 1 -10 -4 -10
-6 0 -11 5 -11 10 0 6 2 10 4 10 3 0 8 -4 11 -10z m-75 -10 c0 -5 -7 -10 -16
-10 -8 0 -12 5 -9 10 3 6 10 10 16 10 5 0 9 -4 9 -10z m-1746 -27 c-9 -37 -14
-44 -25 -38 -5 4 -2 19 6 36 19 37 27 37 19 2z m665 11 c8 -7 -63 -2 -94 7
-20 5 -9 6 30 2 33 -3 62 -7 64 -9z m-2679 -31 c0 -6 6 -14 13 -16 8 -4 7 -6
-3 -6 -8 -1 -23 12 -32 29 -16 29 -16 29 3 17 10 -6 19 -17 19 -24z m2290 22
c0 -8 -4 -15 -10 -15 -5 0 -7 7 -4 15 4 8 8 15 10 15 2 0 4 -7 4 -15z m-235
-27 c-9 -39 -11 -42 -24 -33 -8 4 -6 16 4 36 20 38 28 37 20 -3z m698 25 c-13
-2 -33 -2 -45 0 -13 2 -3 4 22 4 25 0 35 -2 23 -4z m-668 -60 c-8 -44 -25 -68
-25 -35 0 21 19 72 28 72 2 0 1 -17 -3 -37z m-1998 -29 c4 5 2 11 -4 13 -7 3
-13 9 -13 15 0 6 6 6 15 -2 8 -7 15 -9 16 -4 0 5 7 -4 14 -21 16 -35 20 -19 5
20 -7 17 -7 24 0 20 6 -3 10 -13 10 -21 0 -8 5 -14 11 -14 7 0 9 -10 5 -24 -4
-18 -1 -26 11 -30 10 -2 2 -3 -17 -2 -64 5 -95 26 -105 72 l-7 29 25 -30 c14
-17 29 -26 34 -21z m3478 -52 c4 -19 3 -32 -3 -32 -10 0 -16 20 -26 95 l-6 40
14 -35 c7 -20 17 -50 21 -68z m-1446 45 c-5 -17 -9 -33 -9 -34 0 -2 -4 -3 -9
-3 -5 0 -4 17 1 40 6 22 14 37 18 35 5 -3 4 -20 -1 -38z m888 37 c-3 -3 -12
-4 -19 -1 -8 3 -5 6 6 6 11 1 17 -2 13 -5z m-627 -14 c0 -4 55 -17 123 -29 67
-12 132 -24 145 -27 12 -2 22 0 22 5 0 6 12 4 28 -4 15 -8 58 -17 96 -21 37
-3 64 -10 60 -14 -5 -5 -29 -5 -54 0 -27 5 -49 5 -54 -1 -6 -5 3 -9 25 -10
l34 -1 -30 -8 c-21 -6 -11 -7 33 -5 52 3 63 1 58 -11 -8 -20 11 -18 23 3 17
31 24 4 13 -49 -6 -29 -13 -70 -17 -90 -3 -23 -10 -35 -18 -33 -7 3 -25 7 -42
9 -16 2 -57 8 -90 14 -62 11 -134 20 -219 28 -27 2 -57 6 -67 9 -9 3 -21 1
-24 -6 -5 -7 -10 -7 -14 -2 -3 6 -30 13 -60 17 -47 6 -53 5 -42 -7 9 -12 8
-16 -3 -20 -17 -7 -41 17 -32 31 10 16 -44 24 -62 10 -13 -11 -15 -10 -10 3 4
11 -1 20 -18 28 -20 9 -24 18 -24 52 0 41 22 100 44 118 8 7 37 4 91 -9 44
-11 91 -22 103 -25 13 -3 21 -2 18 3 -3 6 -18 13 -33 17 -14 3 -35 12 -45 19
-16 11 -15 13 12 13 17 0 30 -3 30 -7z m1137 -107 c-12 -12 -19 5 -23 54 l-4
48 17 -47 c9 -27 13 -51 10 -55z m-52 34 c12 -40 12 -45 -1 -40 -8 3 -14 11
-14 18 0 7 -3 28 -6 46 -9 47 4 31 21 -24z m-45 -12 c0 -23 -3 -27 -10 -15 -5
8 -10 29 -10 45 0 23 3 27 10 15 5 -8 10 -28 10 -45z m694 21 c-3 -9 -12 -12
-22 -9 -15 6 -9 11 25 22 1 1 0 -5 -3 -13z m191 2 c-11 -6 -30 -20 -42 -31
-13 -11 -26 -18 -29 -15 -6 7 65 58 81 58 5 0 1 -6 -10 -12z m-1016 -61 c1
-10 -3 -15 -9 -12 -5 3 -10 23 -9 43 1 33 2 34 9 12 4 -14 8 -33 9 -43z m89
-2 l1 -20 -9 20 c-5 11 -8 31 -8 45 l0 25 8 -25 c4 -14 8 -34 8 -45z m-48 23
c0 -23 -3 -29 -9 -19 -8 12 -4 51 5 51 2 0 4 -15 4 -32z m910 29 c0 -2 -10
-12 -21 -23 -22 -19 -22 -19 -8 4 12 19 29 30 29 19z m-1050 -60 c0 -16 -4
-26 -10 -22 -5 3 -10 23 -10 43 0 28 3 33 10 22 5 -8 10 -28 10 -43z m1358 29
c7 -1 18 -8 25 -16 10 -12 9 -12 -5 -1 -32 24 -19 0 55 -97 41 -53 77 -105 80
-114 5 -13 -5 -20 -45 -34 -28 -9 -82 -35 -120 -58 -39 -22 -88 -52 -110 -64
-22 -13 -53 -39 -70 -57 -16 -19 -38 -37 -49 -40 -11 -4 -17 -10 -14 -15 3 -4
-1 -13 -9 -19 -7 -6 -21 -31 -32 -56 -11 -29 -24 -44 -34 -42 -10 1 -15 -6
-15 -25 1 -25 -2 -27 -32 -25 -18 1 -33 6 -33 10 0 12 -84 1 -88 -12 -5 -16
-32 -14 -38 4 -5 12 -10 13 -20 4 -10 -8 -14 -8 -14 -1 0 6 -7 9 -15 6 -8 -4
-15 -2 -15 3 0 11 -73 4 -81 -8 -3 -5 -30 -4 -63 4 -57 13 -57 13 -36 32 15
14 17 20 8 26 -7 4 -16 3 -20 -4 -12 -19 -21 0 -24 48 -2 42 8 60 19 33 4 -10
6 -10 6 0 1 7 -7 16 -16 19 -25 9 -34 26 -20 35 9 6 9 10 -2 17 -7 5 -14 22
-15 39 -1 17 -5 34 -9 38 -20 21 -5 44 36 54 23 6 52 15 65 20 13 6 34 10 48
10 43 0 82 30 103 80 l20 47 128 37 c231 68 225 67 241 54 12 -10 11 -15 -7
-29 -32 -26 -25 -31 12 -9 17 11 39 20 49 20 9 0 35 23 59 51 33 40 46 49 63
44 12 -3 27 -7 34 -9z m-1449 -61 c1 -16 -1 -17 -9 -5 -5 8 -9 29 -9 45 1 29
1 29 9 5 4 -14 8 -34 9 -45z m38 18 c-3 -10 -5 -4 -5 12 0 17 2 24 5 18 2 -7
2 -21 0 -30z m-977 -42 c0 -5 -7 -12 -16 -15 -14 -5 -15 -4 -4 9 14 17 20 19
20 6z m1527 -53 c-3 -7 -5 -2 -5 12 0 14 2 19 5 13 2 -7 2 -19 0 -25z m-1507
12 c0 -5 -2 -10 -4 -10 -3 0 -8 5 -11 10 -3 6 -1 10 4 10 6 0 11 -4 11 -10z
m-60 -30 c6 10 15 10 41 1 18 -6 35 -8 38 -4 11 15 41 11 41 -6 0 -13 2 -13 9
-2 11 17 31 6 31 -17 1 -16 2 -16 14 1 17 22 27 22 19 0 -4 -9 -2 -14 3 -10
12 7 64 -35 64 -52 0 -6 5 -11 10 -11 6 0 10 -7 10 -15 0 -11 8 -15 28 -13 23
3 27 -1 26 -20 -1 -20 2 -22 27 -17 17 4 29 2 29 -4 0 -16 40 -24 55 -11 12
10 15 9 15 -5 0 -10 3 -16 6 -13 3 4 19 2 35 -2 17 -5 31 -5 34 1 4 5 25 9 47
9 45 0 146 42 116 48 -10 2 -18 7 -18 11 0 9 46 7 78 -3 22 -7 23 -6 17 16 -7
22 -7 23 9 3 20 -26 20 -61 0 -69 -25 -10 -62 -7 -66 5 -3 8 -14 7 -36 -5 -17
-9 -54 -17 -82 -19 -27 -1 -50 -4 -50 -6 0 -2 10 -12 22 -22 11 -11 19 -22 16
-25 -23 -22 -415 88 -467 131 -16 14 -44 30 -63 36 -47 15 -98 42 -98 52 0 5
5 18 12 30 8 15 13 18 16 8 3 -10 6 -11 12 -1z m780 -83 c0 -6 -3 -7 -7 -4 -3
4 -12 -1 -19 -11 -12 -15 -13 -15 -12 9 2 20 6 25 20 21 10 -2 18 -9 18 -15z
m-1856 -72 c32 -14 55 -29 52 -34 -8 -12 -42 -3 -57 15 -6 8 -17 14 -24 14 -7
0 -18 7 -25 15 -17 20 -12 19 54 -10z m1027 -40 c45 -33 111 -65 121 -59 4 3
8 15 8 28 0 23 34 46 69 46 9 0 71 -18 137 -39 65 -21 163 -47 217 -56 53 -10
97 -21 97 -26 0 -5 -4 -9 -9 -9 -5 0 -7 -9 -4 -21 3 -12 11 -18 20 -15 16 7
53 -28 53 -49 0 -10 18 1 47 30 49 47 102 66 126 46 8 -6 21 -68 32 -155 17
-141 15 -204 -6 -190 -21 12 -79 22 -79 13 0 -13 -21 -11 -54 6 -15 8 -47 15
-70 15 -30 0 -37 3 -26 10 11 7 11 10 2 10 -7 0 -10 5 -6 11 5 8 -6 10 -34 7
-22 -2 -38 0 -36 4 3 5 1 8 -5 8 -5 0 -13 -5 -17 -11 -5 -8 -9 -7 -15 4 -7 12
-36 15 -183 13 -97 -1 -178 -5 -182 -9 -4 -4 -13 -2 -20 4 -9 7 -19 7 -35 -1
-16 -9 -27 -9 -44 0 -13 7 -42 11 -64 8 -31 -3 -40 0 -37 9 4 8 -3 13 -18 13
-54 0 -90 22 -154 95 -5 6 -3 35 5 69 7 33 11 66 8 73 -2 8 0 11 5 8 6 -3 15
6 21 21 18 49 64 113 80 114 9 0 31 -11 50 -25z m1596 -117 c-3 -8 -6 -5 -6 6
-1 11 2 17 5 13 3 -3 4 -12 1 -19z m-2747 -138 c0 -5 -5 -10 -11 -10 -5 0 -7
5 -4 10 3 6 8 10 11 10 2 0 4 -4 4 -10z m1046 -154 c54 -25 71 -41 54 -51 -9
-5 -112 45 -134 66 -19 18 30 8 80 -15z m1891 -42 c-3 -3 -12 -4 -19 -1 -8 3
-5 6 6 6 11 1 17 -2 13 -5z m103 -5 c0 -11 -37 -12 -43 -1 -3 4 6 8 19 8 13 1
24 -2 24 -7z m-1829 -77 c-7 -2 -18 1 -23 6 -8 8 -4 9 13 5 13 -4 18 -8 10
-11z m859 -32 c0 -5 -2 -10 -4 -10 -3 0 -8 5 -11 10 -3 6 -1 10 4 10 6 0 11
-4 11 -10z m1420 -7 c0 -12 -20 -27 -55 -43 -30 -14 -55 -28 -55 -31 0 -4 -9
-9 -20 -12 -11 -3 -20 -10 -20 -16 0 -14 29 -2 55 21 11 11 21 14 23 9 2 -7
11 -7 25 1 23 13 37 15 106 22 41 4 42 4 22 -10 -34 -24 -163 -81 -201 -88
-19 -4 -43 -10 -54 -13 -16 -4 -18 -1 -14 21 4 17 1 26 -8 26 -17 0 -13 62 4
83 8 9 20 13 28 10 9 -3 25 -1 37 4 82 39 127 44 127 16z m-1470 -77 c0 -16
-21 -26 -56 -26 -25 0 -34 24 -11 33 26 11 67 7 67 -7z m-952 -44 c-10 -2 -18
-7 -18 -12 0 -5 7 -7 15 -4 8 4 15 1 15 -5 0 -6 18 -14 40 -17 26 -4 45 -14
51 -26 10 -19 8 -19 -22 -13 -30 7 -32 6 -20 -9 7 -9 20 -16 28 -16 9 0 13 -6
9 -15 -3 -8 -1 -15 5 -15 6 0 7 -4 4 -10 -3 -5 1 -10 9 -10 22 0 66 -22 66
-33 0 -16 -230 24 -295 52 -95 41 -139 61 -135 62 39 7 60 8 60 2 0 -5 18 -8
40 -8 22 0 40 4 40 9 0 6 5 5 11 -1 13 -13 69 2 69 19 0 5 -5 6 -12 2 -8 -5
-9 0 -6 14 4 15 2 22 -8 22 -8 0 -14 4 -14 9 0 4 11 6 25 3 14 -2 25 0 25 7 0
6 7 7 18 3 16 -6 16 -7 0 -10z m2211 -53 c-8 -5 -23 -9 -34 -8 -18 0 -17 1 5
13 26 15 52 10 29 -5z m-1215 -205 c31 -12 15 -24 -31 -23 l-48 1 30 13 c17 8
31 14 32 15 1 0 8 -3 17 -6z"/>
<path d="M5688 8053 c7 -3 16 -2 19 1 4 3 -2 6 -13 5 -11 0 -14 -3 -6 -6z"/>
<path d="M3925 7940 c-16 -7 -17 -9 -3 -9 9 -1 20 4 23 9 7 11 7 11 -20 0z"/>
<path d="M5600 7380 c0 -5 5 -10 10 -10 6 0 10 5 10 10 0 6 -4 10 -10 10 -5 0
-10 -4 -10 -10z"/>
<path d="M5260 7330 c8 -5 20 -10 25 -10 6 0 3 5 -5 10 -8 5 -19 10 -25 10 -5
0 -3 -5 5 -10z"/>
<path d="M5475 7260 c3 -5 13 -10 21 -10 8 0 12 5 9 10 -3 6 -13 10 -21 10 -8
0 -12 -4 -9 -10z"/>
<path d="M7586 6805 c4 -8 8 -15 10 -15 2 0 4 7 4 15 0 8 -4 15 -10 15 -5 0
-7 -7 -4 -15z"/>
<path d="M2550 6870 c0 -5 5 -10 10 -10 6 0 10 5 10 10 0 6 -4 10 -10 10 -5 0
-10 -4 -10 -10z"/>
<path d="M2583 6478 c-20 -26 -78 -158 -69 -158 5 0 96 155 96 163 0 11 -17 8
-27 -5z"/>
<path d="M2740 6279 c0 -5 5 -7 10 -4 6 3 10 8 10 11 0 2 -4 4 -10 4 -5 0 -10
-5 -10 -11z"/>
<path d="M2567 6074 c-4 -4 -7 -14 -7 -23 0 -11 3 -12 11 -4 6 6 10 16 7 23
-2 6 -7 8 -11 4z"/>
<path d="M6885 6650 c-3 -5 -1 -10 4 -10 6 0 11 5 11 10 0 6 -2 10 -4 10 -3 0
-8 -4 -11 -10z"/>
<path d="M6910 6640 c0 -5 5 -10 11 -10 5 0 7 5 4 10 -3 6 -8 10 -11 10 -2 0
-4 -4 -4 -10z"/>
<path d="M6910 6599 c0 -5 5 -7 10 -4 6 3 10 8 10 11 0 2 -4 4 -10 4 -5 0 -10
-5 -10 -11z"/>
<path d="M6946 6575 c4 -8 11 -15 16 -15 6 0 5 6 -2 15 -7 8 -14 15 -16 15 -2
0 -1 -7 2 -15z"/>
<path d="M7000 6526 c0 -2 7 -9 15 -16 9 -7 15 -8 15 -2 0 5 -7 12 -15 16 -8
3 -15 4 -15 2z"/>
<path d="M6987 6483 c3 -7 6 -13 8 -13 2 0 5 6 8 13 3 8 -1 14 -8 14 -7 0 -11
-6 -8 -14z"/>
<path d="M6886 6368 c25 -41 54 -80 54 -72 0 9 -51 84 -57 84 -2 0 -1 -6 3
-12z"/>
<path d="M5060 6405 c0 -19 0 -38 0 -42 0 -20 25 -5 30 17 8 33 1 60 -16 60
-9 0 -14 -12 -14 -35z"/>
<path d="M5050 6328 c0 -7 -5 -53 -11 -102 -8 -63 -8 -91 0 -99 17 -17 21 -6
30 89 5 49 10 95 12 103 2 8 -4 17 -13 19 -10 2 -18 -2 -18 -10z"/>
<path d="M4288 6277 c8 -9 11 -20 8 -26 -3 -5 12 -40 34 -78 22 -37 40 -61 40
-53 1 8 6 4 12 -10 6 -14 10 -31 9 -39 -1 -8 2 -10 10 -5 9 5 10 2 6 -9 -4
-11 -1 -17 8 -17 8 0 15 3 14 8 -1 20 -127 236 -139 240 -13 5 -13 3 -2 -11z
m82 -141 c0 -12 -5 -7 -19 24 -11 24 -11 24 3 6 9 -11 16 -24 16 -30z"/>
<path d="M4941 6103 c-26 -3 -31 -7 -20 -14 12 -7 11 -9 -3 -9 -9 0 -18 6 -20
12 -4 10 -21 10 -82 -1 -149 -25 -251 -68 -111 -47 35 5 63 12 61 15 -4 6 214
6 361 0 45 -2 79 -7 77 -11 -3 -4 14 -9 38 -9 96 -4 120 -7 163 -24 60 -22 50
-32 -11 -11 -59 20 -64 20 -38 1 12 -8 35 -17 51 -19 16 -3 44 -13 63 -22 30
-15 32 -18 14 -25 -13 -4 -7 -6 19 -6 20 1 37 2 37 4 0 1 -21 12 -47 24 -32
15 -42 23 -33 29 40 25 -328 123 -444 118 -22 0 -56 -3 -75 -5z m139 -31 c-17
-6 -42 7 -35 18 4 6 13 5 26 -3 10 -6 15 -13 9 -15z"/>
<path d="M5816 6078 c-18 -25 -21 -42 -6 -33 25 15 7 -16 -20 -35 -17 -12 -27
-26 -24 -32 10 -16 64 47 64 74 0 11 8 27 18 34 16 12 16 13 0 14 -9 0 -24
-10 -32 -22z"/>
<path d="M4484 6001 c-28 -9 -102 -47 -165 -84 -86 -50 -137 -89 -207 -158
-113 -110 -150 -162 -132 -184 10 -12 17 -10 46 20 35 36 39 46 27 59 -4 4
-20 -8 -36 -26 -16 -18 -25 -26 -20 -17 17 35 74 90 85 83 6 -4 8 -3 5 3 -4 6
0 16 8 23 13 10 15 8 15 -13 0 -14 -5 -27 -12 -29 -9 -3 -9 -6 -1 -11 6 -4 18
0 27 9 12 12 13 20 6 35 -9 16 -6 24 17 45 15 15 27 31 25 36 -2 6 4 8 12 5 9
-4 21 4 30 19 9 13 23 24 31 24 8 0 15 4 15 9 0 5 9 11 20 14 11 3 19 11 18
18 -2 7 10 16 27 19 17 3 29 12 27 19 -1 6 3 11 10 10 26 -3 39 1 33 11 -3 5
0 7 8 4 8 -3 34 8 58 24 24 16 60 33 79 39 20 6 26 11 15 11 -11 0 -43 -7 -71
-17z"/>
<path d="M5535 5960 c3 -5 11 -10 16 -10 6 0 7 5 4 10 -3 6 -11 10 -16 10 -6
0 -7 -4 -4 -10z"/>
<path d="M5727 5918 c-19 -28 -32 -37 -40 -30 -24 18 -50 23 -44 8 4 -10 -1
-12 -16 -9 -20 4 -20 3 3 -11 29 -18 22 -20 -17 -5 l-27 10 24 -23 c26 -25 47
-25 68 0 9 12 12 12 12 3 0 -8 -8 -20 -17 -27 -17 -12 -16 -13 5 -14 26 0 30
-20 5 -21 -12 -1 -10 -4 7 -9 14 -4 18 -9 10 -9 -13 -1 -13 -2 0 -11 23 -15
35 39 12 56 -16 12 -15 13 5 14 16 0 21 4 17 15 -4 9 5 33 20 55 30 46 30 47
13 47 -7 0 -25 -18 -40 -39z"/>
<path d="M5555 5920 c3 -5 8 -10 11 -10 2 0 4 5 4 10 0 6 -5 10 -11 10 -5 0
-7 -4 -4 -10z"/>
<path d="M5586 5922 c-2 -4 7 -9 22 -10 21 -1 24 0 12 8 -18 12 -27 12 -34 2z"/>
<path d="M5756 5817 c3 -9 11 -17 17 -17 6 0 7 -3 4 -6 -4 -4 -13 -1 -22 6 -8
7 -15 9 -16 4 0 -5 -2 -19 -5 -31 -3 -19 5 -27 45 -47 27 -14 52 -22 56 -18 5
4 5 1 1 -6 -4 -7 -12 -10 -17 -7 -17 11 -9 -6 16 -33 14 -15 25 -32 25 -39 0
-7 12 -16 26 -19 17 -4 22 -9 14 -14 -9 -5 -9 -9 -1 -14 6 -4 9 -12 6 -17 -4
-5 3 -9 14 -9 14 0 23 -9 27 -25 3 -14 10 -22 15 -19 5 3 9 0 9 -5 0 -6 -7
-11 -15 -11 -12 0 -13 -4 -6 -19 6 -10 7 -21 3 -25 -3 -4 1 -4 11 0 22 8 23
-27 1 -61 -23 -34 -9 -116 16 -100 5 3 11 1 15 -5 3 -5 19 -10 36 -10 17 0 29
-5 29 -13 0 -7 15 -21 33 -30 22 -12 25 -15 8 -11 -16 4 -21 3 -17 -5 4 -6 14
-11 22 -11 8 0 17 -7 21 -16 5 -13 7 -13 14 -2 5 7 9 9 9 3 0 -5 -4 -17 -10
-25 -5 -9 -5 -19 2 -27 6 -8 8 -16 4 -20 -3 -3 -6 -1 -6 5 0 7 -9 12 -21 12
-15 0 -19 -4 -15 -16 3 -9 6 -18 6 -20 0 -2 7 -4 15 -4 9 0 15 -9 14 -22 0
-13 -3 -17 -6 -10 -2 6 -9 12 -14 12 -15 0 24 -49 40 -50 9 0 11 -6 5 -17 -4
-10 -8 -31 -9 -48 -3 -52 -5 -55 -22 -56 -11 0 -13 -3 -5 -6 6 -2 12 -15 12
-29 0 -17 -4 -22 -16 -17 -12 4 -14 0 -12 -20 2 -15 7 -29 10 -33 4 -3 4 -13
1 -22 -5 -11 -3 -13 6 -7 10 6 11 3 2 -12 -6 -11 -7 -24 -3 -28 4 -5 0 -6 -10
-2 -20 7 -31 -26 -14 -43 8 -8 7 -13 -2 -19 -7 -4 -19 -28 -26 -52 -11 -37
-11 -47 2 -67 13 -20 13 -24 -3 -42 -17 -19 -17 -20 1 -20 18 -1 18 -1 1 -15
-10 -7 -25 -35 -32 -62 -7 -26 -14 -39 -14 -28 -1 17 -4 15 -16 -9 -19 -35
-19 -40 -1 -33 21 8 7 -32 -16 -44 -15 -8 -17 -14 -8 -24 8 -10 4 -21 -20 -48
-16 -19 -30 -40 -30 -46 0 -5 -6 -8 -14 -5 -8 3 -16 -3 -19 -16 -3 -12 -10
-20 -14 -17 -5 3 -17 -7 -27 -24 -10 -17 -13 -29 -6 -29 6 0 13 7 16 15 7 17
24 20 24 4 0 -6 -13 -16 -30 -22 -16 -6 -30 -15 -30 -19 0 -4 -6 -8 -14 -8 -8
0 -13 -8 -12 -17 0 -10 -9 -22 -21 -28 -13 -5 -23 -13 -23 -17 0 -18 -48 -61
-82 -75 -23 -9 -35 -20 -32 -28 4 -9 -8 -15 -35 -20 -40 -7 -53 -19 -29 -27 7
-3 6 -7 -5 -11 -9 -3 -17 -2 -17 4 0 6 -14 -1 -31 -15 -17 -14 -39 -26 -49
-26 -9 0 -35 -7 -56 -16 -21 -9 -54 -17 -74 -19 -19 -2 -48 -8 -63 -14 -16 -6
-34 -11 -42 -11 -8 0 -17 -5 -20 -10 -5 -8 -11 -8 -20 0 -9 8 -15 8 -20 0 -3
-5 -23 -10 -43 -10 -20 0 -52 -4 -69 -9 -20 -6 -35 -6 -38 0 -4 5 -15 9 -26 9
-14 0 -18 -4 -12 -12 4 -7 -5 -5 -20 5 -34 22 -34 11 -2 -33 14 -19 25 -42 25
-52 0 -20 20 -24 36 -8 6 6 41 14 80 20 154 21 192 29 237 50 26 12 47 26 47
31 0 5 7 6 15 3 8 -4 15 -1 15 5 0 6 3 10 8 9 15 -3 42 15 35 25 -3 5 -2 7 4
4 6 -4 29 2 51 13 23 11 46 20 52 20 5 0 10 5 10 10 0 6 7 10 16 10 8 0 13 4
10 9 -4 5 7 12 23 16 23 5 28 10 24 23 -6 15 -5 15 10 3 15 -12 21 -9 18 11 0
4 7 4 16 1 12 -5 15 -2 10 9 -3 9 0 19 8 22 10 3 12 0 8 -12 -6 -15 -5 -15 10
-4 9 8 15 19 14 25 -1 7 5 11 14 9 8 -1 26 9 39 23 13 14 30 25 39 25 8 0 41
-18 72 -40 32 -22 61 -40 66 -40 5 0 15 -9 23 -20 14 -20 40 -26 53 -13 4 3
-10 18 -31 32 -20 13 -43 31 -50 38 -7 7 -33 25 -58 39 -24 14 -44 30 -44 35
0 4 13 23 29 41 41 47 137 190 166 248 14 27 25 64 25 82 0 21 3 28 9 20 5 -9
15 10 29 55 61 202 54 187 89 194 17 3 37 2 45 -2 21 -13 72 -10 109 6 34 15
34 15 -39 13 -39 -2 -72 -1 -72 2 0 3 -12 7 -26 8 -14 1 -29 4 -34 7 -4 3 -6
78 -3 168 6 172 -2 248 -39 370 -20 68 -32 86 -43 67 -8 -13 -62 -13 -71 1 -3
6 -18 8 -33 5 -14 -3 -20 -3 -13 0 17 8 15 24 -4 24 -8 0 -22 7 -30 15 -13 12
-13 19 0 50 10 24 20 34 28 29 9 -6 9 -9 0 -12 -7 -2 -12 -8 -12 -13 0 -6 5
-7 10 -4 6 3 10 -1 10 -9 0 -9 5 -16 10 -16 6 0 10 -7 10 -16 0 -21 30 -14
124 30 39 19 85 37 101 41 38 9 128 53 137 68 4 6 2 17 -3 24 -6 7 -8 17 -4
23 15 25 -70 13 -148 -22 -69 -29 -205 -64 -215 -53 -3 3 0 5 6 5 7 0 12 5 12
12 0 6 7 19 16 29 14 16 13 18 -12 31 -16 7 -40 29 -54 49 -53 77 -178 204
-144 147 6 -9 3 -9 -9 0 -9 8 -21 11 -27 7 -5 -3 -10 -2 -10 4 0 5 5 13 10 16
8 5 7 11 -1 21 -6 7 -16 11 -22 7 -5 -3 -7 -2 -4 4 4 6 -5 21 -19 34 -18 17
-23 19 -18 6z m144 -197 c0 -5 -5 -10 -11 -10 -5 0 -7 5 -4 10 3 6 8 10 11 10
2 0 4 -4 4 -10z m130 -144 c0 -3 -4 -8 -10 -11 -5 -3 -10 -1 -10 4 0 6 5 11
10 11 6 0 10 -2 10 -4z m133 -621 c-7 -21 -13 -19 -13 6 0 11 4 18 10 14 5 -3
7 -12 3 -20z m-13 -184 c0 -5 -7 -11 -15 -15 -9 -3 -15 0 -15 9 0 8 7 15 15
15 8 0 15 -4 15 -9z m-44 -57 c-4 -9 -9 -15 -11 -12 -3 3 -3 13 1 22 4 9 9 15
11 12 3 -3 3 -13 -1 -22z m-14 -46 c-7 -7 -12 -8 -12 -2 0 14 12 26 19 19 2
-3 -1 -11 -7 -17z"/>
<path d="M3685 5689 c-16 -24 9 -61 82 -119 42 -34 83 -65 91 -67 19 -8 62
-52 62 -63 0 -6 -14 -10 -31 -10 -26 0 -29 -3 -24 -21 5 -15 4 -19 -4 -15 -7
5 -11 -3 -11 -23 0 -35 -9 -63 -19 -56 -4 2 -5 -10 -2 -28 4 -26 6 -28 9 -9 2
12 8 20 13 16 6 -3 10 0 8 7 -1 8 -1 23 0 34 1 17 3 18 11 5 8 -12 10 -12 10
5 0 11 7 29 15 39 8 10 12 23 9 27 -3 5 2 9 10 9 9 0 16 8 16 18 0 10 14 29
30 44 40 35 38 54 -7 73 -44 18 -187 100 -222 127 -27 21 -37 22 -46 7z"/>
<path d="M4001 5540 c0 -8 4 -22 9 -30 12 -18 12 -2 0 25 -6 13 -9 15 -9 5z"/>
<path d="M3771 5164 c0 -11 3 -14 6 -6 3 7 2 16 -1 19 -3 4 -6 -2 -5 -13z"/>
<path d="M3793 5145 c-3 -9 -3 -18 -1 -21 3 -3 8 4 11 16 6 23 -1 27 -10 5z"/>
<path d="M3785 5100 c-3 -5 -1 -10 4 -10 6 0 11 5 11 10 0 6 -2 10 -4 10 -3 0
-8 -4 -11 -10z"/>
<path d="M3437 5053 c-20 -20 -2 -31 61 -37 139 -14 152 -14 158 -5 9 15 6 17
-99 33 -111 18 -111 18 -120 9z"/>
<path d="M3736 4991 c-4 -29 -5 -55 -2 -58 6 -7 19 83 14 99 -3 7 -8 -11 -12
-41z"/>
<path d="M3781 5024 c0 -11 3 -14 6 -6 3 7 2 16 -1 19 -3 4 -6 -2 -5 -13z"/>
<path d="M3762 4816 c2 -101 0 -179 -4 -173 -4 7 -8 33 -8 59 0 26 -4 49 -9
52 -12 8 0 -93 24 -204 5 -22 4 -22 -9 4 -12 27 -14 28 -20 10 -3 -12 1 -36
11 -55 17 -34 17 -34 24 -9 l6 25 7 -30 c15 -60 18 -65 27 -60 5 3 6 -1 3 -9
-3 -8 4 -36 16 -63 12 -26 28 -70 36 -96 9 -26 22 -51 29 -54 8 -3 27 -27 41
-54 15 -27 35 -51 45 -54 9 -3 24 -16 32 -29 23 -34 137 -148 182 -181 22 -17
42 -33 45 -36 10 -13 139 -88 156 -91 10 -2 26 -10 35 -19 26 -26 174 -79 219
-79 23 0 50 -5 61 -11 11 -6 25 -8 32 -6 7 3 1 9 -13 15 -17 7 -19 11 -8 11 9
1 23 -6 32 -14 20 -20 26 -19 26 5 0 11 -4 20 -10 20 -5 0 -10 6 -10 13 0 6
-11 17 -24 23 -20 9 -26 9 -30 -3 -6 -15 -36 -14 -48 2 -5 6 -11 5 -17 -4 -7
-11 -11 -9 -21 8 -14 27 -52 43 -62 27 -6 -8 -8 -7 -8 2 0 6 -7 12 -15 12 -9
0 -28 9 -43 20 -15 11 -38 21 -51 23 -14 2 -27 9 -29 15 -2 6 -9 9 -15 6 -7
-2 -27 9 -45 25 -17 17 -32 28 -32 25 0 -3 -17 8 -37 23 -21 15 -44 33 -52 38
-7 6 -37 34 -65 64 -28 30 -68 71 -88 92 -21 20 -38 39 -38 43 0 3 -9 16 -20
29 -37 40 -45 51 -75 112 -17 33 -35 66 -42 72 -6 7 -14 27 -18 44 -9 42 -30
80 -39 71 -5 -4 -6 0 -5 8 3 13 -6 45 -38 130 -3 8 -7 26 -8 40 -1 14 -4 25
-5 25 -7 0 -12 92 -11 203 0 75 -3 122 -10 122 -6 0 -8 -67 -7 -184z m20 -221
c3 -14 1 -25 -3 -25 -5 0 -9 11 -9 25 0 14 2 25 4 25 2 0 6 -11 8 -25z m958
-895 c0 -5 -4 -10 -9 -10 -6 0 -13 5 -16 10 -3 6 1 10 9 10 9 0 16 -4 16 -10z
m-85 -10 c-28 -12 -37 -12 -30 0 3 6 16 10 28 9 21 0 21 -1 2 -9z"/>
<path d="M3733 4830 c0 -36 2 -50 4 -32 2 17 2 47 0 65 -2 17 -4 3 -4 -33z"/>
<path d="M3731 4614 c0 -11 3 -14 6 -6 3 7 2 16 -1 19 -3 4 -6 -2 -5 -13z"/>
<path d="M3660 4394 c-47 -12 -95 -23 -107 -23 -20 -1 -51 -37 -40 -47 2 -2
46 7 98 21 52 14 105 25 119 25 28 1 60 21 60 39 0 16 -32 12 -130 -15z"/>
<path d="M4620 3760 c0 -13 18 -22 24 -11 3 5 -1 11 -9 15 -8 3 -15 1 -15 -4z"/>
<path d="M4201 3744 c0 -11 3 -14 6 -6 3 7 2 16 -1 19 -3 4 -6 -2 -5 -13z"/>
<path d="M4683 3745 c0 -8 4 -12 9 -9 5 3 6 10 3 15 -9 13 -12 11 -12 -6z"/>
<path d="M4810 3746 c0 -8 -9 -21 -21 -29 -14 -10 -17 -17 -9 -22 6 -4 18 1
25 11 9 11 14 14 15 7 0 -7 7 -13 16 -13 8 0 12 5 8 11 -3 6 0 16 7 21 10 6 6
7 -11 3 -17 -5 -22 -4 -15 3 6 5 19 12 30 15 13 3 9 5 -12 6 -23 1 -33 -4 -33
-13z"/>
<path d="M4148 3673 c7 -3 16 -2 19 1 4 3 -2 6 -13 5 -11 0 -14 -3 -6 -6z"/>
<path d="M4854 3668 c-19 -9 -20 -14 -12 -50 4 -22 9 -88 10 -146 1 -111 8
-132 39 -132 33 0 42 39 45 183 2 75 2 137 1 137 -1 0 -16 4 -32 9 -18 5 -39
4 -51 -1z"/>
<path d="M4115 3639 c-11 -17 1 -21 15 -4 8 9 8 15 2 15 -6 0 -14 -5 -17 -11z"/>
<path d="M5345 3568 c-7 -8 -3 -27 13 -61 13 -27 26 -47 28 -44 8 8 -16 87
-26 87 -5 0 -7 7 -4 15 7 18 3 19 -11 3z"/>
<path d="M3145 5930 c-3 -6 1 -7 9 -4 18 7 21 14 7 14 -6 0 -13 -4 -16 -10z"/>
<path d="M3145 5879 c-4 -6 -5 -12 -2 -15 2 -3 7 2 10 11 7 17 1 20 -8 4z"/>
<path d="M3123 5843 c-15 -5 -17 -23 -4 -23 5 0 11 7 15 15 3 8 4 15 3 14 -1
0 -8 -3 -14 -6z"/>
<path d="M3035 5770 c3 -5 8 -10 11 -10 2 0 4 5 4 10 0 6 -5 10 -11 10 -5 0
-7 -4 -4 -10z"/>
<path d="M2976 5623 c-4 -9 -4 -18 -1 -21 3 -3 5 0 5 6 0 6 8 12 18 14 15 3
16 4 0 10 -10 4 -19 1 -22 -9z"/>
<path d="M2951 5584 c0 -11 3 -14 6 -6 3 7 2 16 -1 19 -3 4 -6 -2 -5 -13z"/>
<path d="M2927 5536 c-3 -7 -1 -19 5 -27 8 -11 9 -11 4 3 -3 11 1 18 12 20 16
3 16 4 0 10 -9 4 -18 1 -21 -6z"/>
<path d="M2911 5484 c0 -11 3 -14 6 -6 3 7 2 16 -1 19 -3 4 -6 -2 -5 -13z"/>
<path d="M2890 5445 c0 -5 5 -17 10 -25 5 -8 10 -10 10 -5 0 6 -5 17 -10 25
-5 8 -10 11 -10 5z"/>
<path d="M2862 5420 c0 -14 2 -19 5 -12 2 6 2 18 0 25 -3 6 -5 1 -5 -13z"/>
<path d="M2882 5400 c0 -14 2 -19 5 -12 2 6 2 18 0 25 -3 6 -5 1 -5 -13z"/>
<path d="M2846 5372 c-3 -4 4 -9 15 -9 23 -2 25 3 4 10 -8 4 -16 3 -19 -1z"/>
<path d="M2910 5345 c0 -8 2 -15 4 -15 2 0 6 7 10 15 3 8 1 15 -4 15 -6 0 -10
-7 -10 -15z"/>
<path d="M2863 5324 c-6 -16 16 -38 27 -27 3 3 -1 8 -7 10 -7 3 -13 9 -13 15
0 6 7 7 16 4 8 -3 12 -2 9 4 -9 15 -25 12 -32 -6z"/>
<path d="M2853 5233 c-16 -3 -23 -11 -22 -26 1 -17 2 -18 6 -4 5 20 8 20 34 7
13 -7 19 -7 19 0 0 5 -6 10 -12 10 -9 0 -8 4 2 10 15 10 11 10 -27 3z"/>
<path d="M2908 5223 c7 -3 16 -2 19 1 4 3 -2 6 -13 5 -11 0 -14 -3 -6 -6z"/>
<path d="M7675 5200 c3 -5 8 -10 11 -10 2 0 4 5 4 10 0 6 -5 10 -11 10 -5 0
-7 -4 -4 -10z"/>
<path d="M7560 5115 c0 -8 5 -15 10 -15 6 0 10 7 10 15 0 8 -4 15 -10 15 -5 0
-10 -7 -10 -15z"/>
<path d="M7438 4728 c9 -9 15 -9 24 0 9 9 7 12 -12 12 -19 0 -21 -3 -12 -12z"/>
<path d="M8631 5174 c0 -11 3 -14 6 -6 3 7 2 16 -1 19 -3 4 -6 -2 -5 -13z"/>
<path d="M2526 4801 c-4 -6 -2 -11 3 -11 6 0 11 -12 11 -27 0 -16 5 -35 11
-43 7 -11 8 -3 4 30 -8 49 -19 68 -29 51z"/>
<path d="M2555 4613 c4 -68 5 -73 13 -73 9 0 0 96 -10 105 -3 3 -4 -12 -3 -32z"/>
<path d="M2551 4304 c0 -11 3 -14 6 -6 3 7 2 16 -1 19 -3 4 -6 -2 -5 -13z"/>
<path d="M2878 4893 c-3 -4 4 -16 14 -26 19 -18 20 -18 16 4 -3 23 -23 37 -30
22z"/>
<path d="M7275 3490 c3 -5 8 -10 11 -10 2 0 4 5 4 10 0 6 -5 10 -11 10 -5 0
-7 -4 -4 -10z"/>
<path d="M6936 3311 c-3 -5 1 -11 9 -14 9 -4 12 -1 8 9 -6 16 -10 17 -17 5z"/>
<path d="M7785 3600 c-3 -5 -2 -10 4 -10 5 0 13 5 16 10 3 6 2 10 -4 10 -5 0
-13 -4 -16 -10z"/>
<path d="M7755 3540 c-3 -5 -1 -10 4 -10 6 0 11 5 11 10 0 6 -2 10 -4 10 -3 0
-8 -4 -11 -10z"/>
<path d="M2893 3233 c1 -19 6 -28 11 -23 6 6 5 18 -2 32 -10 22 -10 21 -9 -9z"/>
<path d="M3164 3138 c3 -13 8 -34 11 -48 5 -21 4 -22 -4 -5 -5 12 -17 27 -26
35 -16 14 -17 13 -11 -8 5 -13 3 -22 -3 -22 -8 0 -7 -7 1 -20 7 -11 16 -20 19
-20 3 0 37 -29 74 -65 38 -36 75 -65 82 -65 7 0 13 -6 13 -12 0 -9 3 -8 10 2
8 13 13 13 40 -3 35 -21 40 -9 9 19 -12 10 -25 29 -30 42 -8 22 -39 31 -39 12
0 -5 -4 -10 -10 -10 -18 0 -11 30 8 30 15 1 15 2 1 13 -8 7 -18 20 -22 30 -3
9 -11 17 -17 17 -5 0 -10 7 -10 15 0 8 -4 15 -9 15 -5 0 -26 16 -47 35 -43 41
-46 42 -40 13z"/>
<path d="M2897 3121 c-2 -10 -1 -25 4 -32 6 -10 9 -4 9 19 0 36 -5 42 -13 13z"/>
<path d="M3302 3078 c2 -6 10 -14 16 -16 7 -2 10 2 6 12 -7 18 -28 22 -22 4z"/>
<path d="M3405 2880 c-3 -6 1 -7 9 -4 18 7 21 14 7 14 -6 0 -13 -4 -16 -10z"/>
<path d="M2860 2611 c0 -5 5 -13 10 -16 6 -3 10 -2 10 4 0 5 -4 13 -10 16 -5
3 -10 2 -10 -4z"/>
<path d="M2906 2571 c-4 -7 -5 -15 -2 -18 9 -9 19 4 14 18 -4 11 -6 11 -12 0z"/>
<path d="M2905 2480 c3 -5 8 -10 11 -10 2 0 4 5 4 10 0 6 -5 10 -11 10 -5 0
-7 -4 -4 -10z"/>
<path d="M4007 2819 c7 -7 15 -10 18 -7 3 3 -2 9 -12 12 -14 6 -15 5 -6 -5z"/>
<path d="M6236 2743 c-6 -14 -5 -15 5 -6 7 7 10 15 7 18 -3 3 -9 -2 -12 -12z"/>
<path d="M6173 2713 c9 -2 23 -2 30 0 6 3 -1 5 -18 5 -16 0 -22 -2 -12 -5z"/>
<path d="M6130 2430 c0 -5 7 -10 15 -10 8 0 15 5 15 10 0 6 -7 10 -15 10 -8 0
-15 -4 -15 -10z"/>
<path d="M4858 2543 c7 -3 16 -2 19 1 4 3 -2 6 -13 5 -11 0 -14 -3 -6 -6z"/>
<path d="M4465 2480 c19 -8 73 -14 64 -6 -2 2 -22 6 -44 9 -28 5 -34 4 -20 -3z"/>
<path d="M4565 2460 c28 -12 45 -12 45 0 0 6 -15 10 -32 9 -28 0 -30 -2 -13
-9z"/>
<path d="M4625 2460 c3 -5 11 -10 16 -10 6 0 7 5 4 10 -3 6 -11 10 -16 10 -6
0 -7 -4 -4 -10z"/>
<path d="M4630 2391 c0 -5 -10 -11 -22 -13 -31 -4 -33 -23 -2 -25 15 0 30 -7
35 -15 7 -10 9 -10 9 0 0 8 5 10 12 6 11 -7 26 -8 73 -5 8 1 15 8 15 17 0 8
-5 12 -10 9 -6 -4 -17 -1 -25 5 -12 10 -15 9 -15 -4 0 -10 -5 -14 -10 -11 -6
4 -8 11 -5 16 11 17 -6 31 -21 18 -10 -8 -14 -8 -14 0 0 6 -4 11 -10 11 -5 0
-10 -4 -10 -9z"/>
<path d="M4770 2329 c0 -5 5 -7 10 -4 6 3 10 8 10 11 0 2 -4 4 -10 4 -5 0 -10
-5 -10 -11z"/>
<path d="M5806 1867 c3 -10 9 -15 12 -12 3 3 0 11 -7 18 -10 9 -11 8 -5 -6z"/>
<path d="M6180 1806 c0 -2 7 -7 16 -10 8 -3 12 -2 9 4 -6 10 -25 14 -25 6z"/>
<path d="M4321 2154 c0 -11 3 -14 6 -6 3 7 2 16 -1 19 -3 4 -6 -2 -5 -13z"/>
<path d="M4341 2144 c0 -11 3 -14 6 -6 3 7 2 16 -1 19 -3 4 -6 -2 -5 -13z"/>
<path d="M4428 2133 c7 -3 16 -2 19 1 4 3 -2 6 -13 5 -11 0 -14 -3 -6 -6z"/>
<path d="M6260 1380 c0 -5 5 -10 11 -10 5 0 7 5 4 10 -3 6 -8 10 -11 10 -2 0
-4 -4 -4 -10z"/>
<path d="M3995 1330 c3 -5 11 -10 16 -10 6 0 7 5 4 10 -3 6 -11 10 -16 10 -6
0 -7 -4 -4 -10z"/>
<path d="M4020 1300 c0 -5 5 -10 11 -10 5 0 7 5 4 10 -3 6 -8 10 -11 10 -2 0
-4 -4 -4 -10z"/>
</g>
</svg>
